<?xml version="1.0" encoding="UTF-8"?>
<!DOCTYPE svg PUBLIC "-//W3C//DTD SVG 1.1//EN" "http://www.w3.org/Graphics/SVG/1.1/DTD/svg11.dtd">
<svg xmlns="http://www.w3.org/2000/svg" version="1.1" width="348px" height="120px" style="shape-rendering:geometricPrecision; text-rendering:geometricPrecision; image-rendering:optimizeQuality; fill-rule:evenodd; clip-rule:evenodd" xmlns:xlink="http://www.w3.org/1999/xlink">
<g><path style="opacity:0.764" fill="#33302e" d="M 45.5,14.5 C 48.5184,14.3354 51.5184,14.502 54.5,15C 68.1019,18.3092 79.9352,24.8092 90,34.5C 104.399,57.0884 102.233,77.9218 83.5,97C 60.9116,111.399 40.0782,109.233 21,90.5C 6.60076,67.9116 8.76743,47.0782 27.5,28C 31.8569,25.9688 35.1902,22.9688 37.5,19C 40.6844,18.2458 43.3511,16.7458 45.5,14.5 Z"/></g>
<g><path style="opacity:1" fill="#eeeeee" d="M 47.5,15.5 C 49.1992,15.3398 50.8659,15.5065 52.5,16C 57.0295,18.353 61.6962,20.1863 66.5,21.5C 68.3158,25.6286 70.3158,29.6286 72.5,33.5C 71.9272,36.0853 70.2605,37.0853 67.5,36.5C 67.3601,34.8762 68.0267,33.7096 69.5,33C 66.56,29.6962 62.8934,27.6962 58.5,27C 56.8624,23.9429 55.5291,23.9429 54.5,27C 50.855,27.2589 48.0217,25.7589 46,22.5C 45.7168,24.6019 46.5501,26.2685 48.5,27.5C 45.2724,28.1591 42.4391,27.1591 40,24.5C 39.8374,26.3867 40.6707,27.8867 42.5,29C 41.5,29.3333 40.5,29.6667 39.5,30C 41.6157,31.1707 42.2824,32.6707 41.5,34.5C 39.2466,33.7469 37.4133,32.4136 36,30.5C 35.5417,26.9513 36.2084,23.618 38,20.5C 41.7088,19.7304 44.8754,18.0638 47.5,15.5 Z"/></g>
<g><path style="opacity:1" fill="#fa771f" d="M 69.5,40.5 C 69.1583,39.6618 68.4916,39.3284 67.5,39.5C 69.2905,38.6087 71.1239,37.6087 73,36.5C 73.6667,34.5 73.6667,32.5 73,30.5C 70.3807,28.3629 69.714,26.0295 71,23.5C 92.0957,33.6914 100.429,50.3581 96,73.5C 95.2411,76.7846 93.9078,79.7846 92,82.5C 90.4693,76.4368 87.636,71.1034 83.5,66.5C 78.2862,63.9761 73.1196,61.3095 68,58.5C 67.7435,55.443 67.2435,52.443 66.5,49.5C 68.8738,46.9717 69.8738,43.9717 69.5,40.5 Z"/></g>
<g><path style="opacity:1" fill="#f9761f" d="M 40.5,60.5 C 28.9774,62.4617 21.4774,69.1284 18,80.5C 8.86044,58.4338 14.0271,40.4338 33.5,26.5C 34.6337,31.6391 37.6337,35.3057 42.5,37.5C 41.0627,39.0212 40.396,40.8546 40.5,43C 41.7627,46.5378 42.4293,50.2045 42.5,54C 42.3418,56.4495 41.6752,58.6162 40.5,60.5 Z"/></g>
<g><path style="opacity:1" fill="#e9e9e9" d="M 46.5,29.5 C 52.8979,29.2427 59.2312,29.7427 65.5,31C 66.5762,32.7261 66.7429,34.5594 66,36.5C 62.3622,34.9863 58.5289,34.3196 54.5,34.5C 51.8333,34.6667 49.1667,34.8333 46.5,35C 45.5838,35.3742 44.7504,35.8742 44,36.5C 42.9164,33.3411 43.7498,31.0078 46.5,29.5 Z"/></g>
<g><path style="opacity:1" fill="#b08b6b" d="M 51.5,36.5 C 51.5,36.8333 51.5,37.1667 51.5,37.5C 47.551,37.6932 47.551,38.1932 51.5,39C 50.552,39.4828 49.552,39.6495 48.5,39.5C 48.5,40.5 48.5,41.5 48.5,42.5C 47.5041,42.5858 46.6708,42.2524 46,41.5C 45.8333,42.5 45.6667,43.5 45.5,44.5C 45.6399,46.0296 46.3065,47.0296 47.5,47.5C 47.189,48.4778 46.5223,49.1445 45.5,49.5C 44.5091,45.5546 44.1758,41.5546 44.5,37.5C 46.5996,37.5228 48.4329,36.8561 50,35.5C 50.7648,35.5699 51.2648,35.9033 51.5,36.5 Z"/></g>
<g><path style="opacity:1" fill="#514438" d="M 51.5,37.5 C 53.2132,38.6354 53.8799,40.302 53.5,42.5C 51.8333,42.5 50.1667,42.5 48.5,42.5C 48.5,41.5 48.5,40.5 48.5,39.5C 49.552,39.6495 50.552,39.4828 51.5,39C 47.551,38.1932 47.551,37.6932 51.5,37.5 Z"/></g>
<g><path style="opacity:1" fill="#8f725a" d="M 64.5,37.5 C 65.2679,38.2625 65.7679,39.2625 66,40.5C 66.3826,39.944 66.8826,39.6107 67.5,39.5C 68.4916,39.3284 69.1583,39.6618 69.5,40.5C 68.678,42.3885 67.8447,44.3885 67,46.5C 66.6667,44.8333 66.3333,43.1667 66,41.5C 65.8091,43.7078 65.3091,45.7078 64.5,47.5C 64.5,44.1667 64.5,40.8333 64.5,37.5 Z"/></g>
<g><path style="opacity:1" fill="#dfb58d" d="M 51.5,37.5 C 51.5,37.1667 51.5,36.8333 51.5,36.5C 53.8568,36.3367 56.1902,36.5034 58.5,37C 56.5561,39.1529 56.0561,41.6529 57,44.5C 58.2183,42.9808 59.7183,41.8141 61.5,41C 60.6721,40.0853 59.6721,39.4186 58.5,39C 59.5,38.6667 60.5,38.3333 61.5,38C 61.1667,37.6667 60.8333,37.3333 60.5,37C 61.8193,36.805 63.1526,36.9717 64.5,37.5C 64.5,40.8333 64.5,44.1667 64.5,47.5C 64.6309,48.3764 64.2975,49.0431 63.5,49.5C 62.4096,48.273 61.0762,47.4396 59.5,47C 60.6956,46.3457 60.6956,45.8457 59.5,45.5C 56.5,48.1667 53.5,48.1667 50.5,45.5C 49.3044,45.8457 49.3044,46.3457 50.5,47C 49.552,47.4828 48.552,47.6495 47.5,47.5C 46.3065,47.0296 45.6399,46.0296 45.5,44.5C 45.6667,43.5 45.8333,42.5 46,41.5C 46.6708,42.2524 47.5041,42.5858 48.5,42.5C 50.1667,42.5 51.8333,42.5 53.5,42.5C 53.8799,40.302 53.2132,38.6354 51.5,37.5 Z"/></g>
<g><path style="opacity:1" fill="#b19275" d="M 41.5,40.5 C 42.2389,40.369 42.9056,40.5357 43.5,41C 43.3744,42.9743 43.2078,45.141 43,47.5C 41.7978,45.3225 41.2978,42.9892 41.5,40.5 Z"/></g>
<g><path style="opacity:0.728" fill="#fefffe" d="M 223.5,46.5 C 225.833,46.5 228.167,46.5 230.5,46.5C 230.5,48.5 230.5,50.5 230.5,52.5C 228.167,52.5 225.833,52.5 223.5,52.5C 223.5,50.5 223.5,48.5 223.5,46.5 Z"/></g>
<g><path style="opacity:1" fill="#ff791f" d="M 181.5,46.5 C 183.5,46.5 185.5,46.5 187.5,46.5C 187.5,48.5 187.5,50.5 187.5,52.5C 181.591,53.9256 179.591,51.9256 181.5,46.5 Z"/></g>
<g><path style="opacity:0.883" fill="#fefffe" d="M 199.5,47.5 C 204.179,47.3342 208.845,47.5008 213.5,48C 220.632,50.0489 222.799,54.5489 220,61.5C 216.106,64.7413 211.606,66.0747 206.5,65.5C 206.5,68.1667 206.5,70.8333 206.5,73.5C 204.167,73.5 201.833,73.5 199.5,73.5C 199.5,64.8333 199.5,56.1667 199.5,47.5 Z M 206.5,53.5 C 209.641,52.9082 211.974,53.9082 213.5,56.5C 211.974,59.0918 209.641,60.0918 206.5,59.5C 206.5,57.5 206.5,55.5 206.5,53.5 Z"/></g>
<g><path style="opacity:0.99" fill="#ff791f" d="M 114.5,47.5 C 120.5,47.5 126.5,47.5 132.5,47.5C 132.5,49.8333 132.5,52.1667 132.5,54.5C 128.5,54.5 124.5,54.5 120.5,54.5C 120.5,55.8333 120.5,57.1667 120.5,58.5C 124.182,58.3347 127.848,58.5014 131.5,59C 132.406,60.6995 132.739,62.5328 132.5,64.5C 128.5,64.5 124.5,64.5 120.5,64.5C 120.5,67.5 120.5,70.5 120.5,73.5C 118.167,73.5 115.833,73.5 113.5,73.5C 113.197,64.7489 113.53,56.0823 114.5,47.5 Z"/></g>
<g><path style="opacity:0.969" fill="#ff791f" d="M 170.5,47.5 C 172.833,47.5 175.167,47.5 177.5,47.5C 177.5,56.1667 177.5,64.8333 177.5,73.5C 172.802,73.7096 168.136,73.8763 163.5,74C 160.458,73.4454 158.625,71.6121 158,68.5C 156.061,61.0947 158.561,56.0947 165.5,53.5C 167.059,54.0736 168.559,54.7402 170,55.5C 170.497,52.854 170.664,50.1873 170.5,47.5 Z M 166.5,59.5 C 169.734,59.2366 171.068,60.7366 170.5,64C 170.947,66.5993 169.947,68.0993 167.5,68.5C 163.837,66.0186 163.504,63.0186 166.5,59.5 Z"/></g>
<g><path style="opacity:1" fill="#7b756f" d="M 56.5,51.5 C 55.5,52.1667 54.5,52.8333 53.5,53.5C 53.5,54.1667 53.1667,54.5 52.5,54.5C 52.5674,53.0413 52.2341,51.7079 51.5,50.5C 53.2884,49.3775 55.2884,49.2109 57.5,50C 56.944,50.3826 56.6107,50.8826 56.5,51.5 Z"/></g>
<g><path style="opacity:1" fill="#bf9572" d="M 51.5,50.5 C 52.2341,51.7079 52.5674,53.0413 52.5,54.5C 48.7482,54.4993 47.7482,52.8326 49.5,49.5C 50.1835,49.8627 50.8501,50.1961 51.5,50.5 Z"/></g>
<g><path style="opacity:1" fill="#b7906f" d="M 53.5,53.5 C 54.5,52.8333 55.5,52.1667 56.5,51.5C 58.0443,51.2969 59.3777,50.6302 60.5,49.5C 61.6446,50.7757 61.6446,52.109 60.5,53.5C 58.2287,54.3635 55.8954,54.3635 53.5,53.5 Z"/></g>
<g><path style="opacity:0.846" fill="#fefffe" d="M 282.5,53.5 C 287.06,53.4146 290.226,55.4146 292,59.5C 292.499,64.1548 292.666,68.8215 292.5,73.5C 289.881,73.7683 287.381,73.435 285,72.5C 281.957,74.9078 278.791,75.0745 275.5,73C 273.271,70.447 272.938,67.6136 274.5,64.5C 277.791,62.2795 281.457,61.1128 285.5,61C 284.953,60.0754 284.287,59.2421 283.5,58.5C 280.724,60.1298 277.724,60.7965 274.5,60.5C 275.329,56.0011 277.996,53.6678 282.5,53.5 Z M 282.5,65.5 C 286.208,66.5509 286.041,67.8842 282,69.5C 280.941,69.3699 280.108,68.8699 279.5,68C 280.571,67.1482 281.571,66.3149 282.5,65.5 Z"/></g>
<g><path style="opacity:0.974" fill="#ff791f" d="M 135.5,54.5 C 137.833,54.5 140.167,54.5 142.5,54.5C 142.334,58.8461 142.501,63.1794 143,67.5C 144.333,68.8333 145.667,68.8333 147,67.5C 147.499,63.1794 147.666,58.8461 147.5,54.5C 149.833,54.5 152.167,54.5 154.5,54.5C 154.5,60.8333 154.5,67.1667 154.5,73.5C 152.208,73.7564 150.041,73.4231 148,72.5C 143.405,75.4477 139.405,74.7811 136,70.5C 135.501,65.1771 135.334,59.8437 135.5,54.5 Z"/></g>
<g><path style="opacity:0.985" fill="#fe791f" d="M 181.5,54.5 C 183.5,54.5 185.5,54.5 187.5,54.5C 187.5,60.8333 187.5,67.1667 187.5,73.5C 185.5,73.5 183.5,73.5 181.5,73.5C 181.5,67.1667 181.5,60.8333 181.5,54.5 Z"/></g>
<g><path style="opacity:0.857" fill="#fefffe" d="M 223.5,54.5 C 225.833,54.5 228.167,54.5 230.5,54.5C 230.5,60.8333 230.5,67.1667 230.5,73.5C 228.167,73.5 225.833,73.5 223.5,73.5C 223.5,67.1667 223.5,60.8333 223.5,54.5 Z"/></g>
<g><path style="opacity:0.886" fill="#fefffe" d="M 234.5,54.5 C 240.167,54.5 245.833,54.5 251.5,54.5C 250.556,59.8692 247.889,64.3692 243.5,68C 246.146,68.4974 248.813,68.6641 251.5,68.5C 251.5,70.1667 251.5,71.8333 251.5,73.5C 245.5,73.5 239.5,73.5 233.5,73.5C 233.34,71.8008 233.506,70.1341 234,68.5C 236.872,65.9634 239.372,63.1301 241.5,60C 239.19,59.5034 236.857,59.3367 234.5,59.5C 234.5,57.8333 234.5,56.1667 234.5,54.5 Z"/></g>
<g><path style="opacity:0.873" fill="#fefffe" d="M 253.5,54.5 C 259.176,54.3339 264.843,54.5006 270.5,55C 271.554,56.3876 271.72,57.8876 271,59.5C 268.618,62.4272 266.118,65.2605 263.5,68C 266.146,68.4974 268.813,68.6641 271.5,68.5C 271.5,70.1667 271.5,71.8333 271.5,73.5C 265.5,73.5 259.5,73.5 253.5,73.5C 253.34,71.8008 253.506,70.1341 254,68.5C 256.872,65.9634 259.372,63.1301 261.5,60C 258.854,59.5026 256.187,59.3359 253.5,59.5C 253.5,57.8333 253.5,56.1667 253.5,54.5 Z"/></g>
<g><path style="opacity:1" fill="#f8f8f8" d="M 40.5,60.5 C 41.791,60.2627 42.791,60.596 43.5,61.5C 44.2543,64.091 45.921,65.9243 48.5,67C 53.2196,67.7168 57.8862,67.5502 62.5,66.5C 64.9661,66.8987 66.9661,68.0653 68.5,70C 66.4602,76.3661 65.1268,82.8661 64.5,89.5C 63.1411,88.9935 62.1411,87.9935 61.5,86.5C 60.5,86.8333 59.8333,87.5 59.5,88.5C 53.8625,89.6632 48.1959,89.8299 42.5,89C 40.9984,88.4169 39.6651,87.5836 38.5,86.5C 36.7247,83.2624 34.7247,80.2624 32.5,77.5C 32.5,76.8333 32.1667,76.5 31.5,76.5C 31.5086,74.6916 31.0086,73.0249 30,71.5C 29.7247,74.0583 30.2247,76.3916 31.5,78.5C 32.1495,80.4352 32.4828,82.4352 32.5,84.5C 29.4552,84.5079 26.4552,84.8413 23.5,85.5C 22.5028,85.5299 21.8361,85.0299 21.5,84C 22.9892,79.5283 24.3225,75.0283 25.5,70.5C 26.0076,68.7673 26.841,68.434 28,69.5C 28.6172,68.5509 28.4506,67.7175 27.5,67C 32.1732,65.3301 36.5066,63.1634 40.5,60.5 Z"/></g>
<g><path style="opacity:1" fill="#eaebea" d="M 74.5,82.5 C 71.065,83.1916 69.065,85.1916 68.5,88.5C 67.8333,88.5 67.5,88.8333 67.5,89.5C 66.8476,88.5514 66.5143,87.3847 66.5,86C 67.3076,80.7952 68.3076,75.6285 69.5,70.5C 68.488,67.1473 66.1547,65.4806 62.5,65.5C 63.8033,63.3683 65.6366,61.7016 68,60.5C 72.7742,62.8039 77.6075,64.9705 82.5,67C 81.1669,68.8402 81.3335,69.3402 83,68.5C 87.4742,73.4217 89.6408,79.0884 89.5,85.5C 85.571,84.1844 81.571,83.1844 77.5,82.5C 78.4704,78.7807 79.3038,75.1141 80,71.5C 78.4423,75.3634 76.6089,79.03 74.5,82.5 Z"/></g>
<g><path style="opacity:1" fill="#afb3b3" d="M 43.5,61.5 C 49.2544,65.0752 55.5878,66.4086 62.5,65.5C 62.5,65.8333 62.5,66.1667 62.5,66.5C 57.8862,67.5502 53.2196,67.7168 48.5,67C 45.921,65.9243 44.2543,64.091 43.5,61.5 Z"/></g>
<g><path style="opacity:1" fill="#939393" d="M 31.5,76.5 C 31.5,77.1667 31.5,77.8333 31.5,78.5C 30.2247,76.3916 29.7247,74.0583 30,71.5C 31.0086,73.0249 31.5086,74.6916 31.5,76.5 Z"/></g>
<g><path style="opacity:1" fill="#707070" d="M 62.5,78.5 C 65.1247,79.4657 65.1247,80.4657 62.5,81.5C 61.4376,80.5754 61.4376,79.5754 62.5,78.5 Z"/></g>
<g><path style="opacity:1" fill="#c9c9c8" d="M 25.5,70.5 C 24.3225,75.0283 22.9892,79.5283 21.5,84C 21.8361,85.0299 22.5028,85.5299 23.5,85.5C 20.683,87.0497 19.3497,86.0497 19.5,82.5C 20.4658,77.9016 22.4658,73.9016 25.5,70.5 Z"/></g>
<g><path style="opacity:1" fill="#626262" d="M 62.5,66.5 C 62.5,66.1667 62.5,65.8333 62.5,65.5C 66.1547,65.4806 68.488,67.1473 69.5,70.5C 68.3076,75.6285 67.3076,80.7952 66.5,86C 66.5143,87.3847 66.8476,88.5514 67.5,89.5C 66.6522,90.625 65.6522,90.625 64.5,89.5C 65.1268,82.8661 66.4602,76.3661 68.5,70C 66.9661,68.0653 64.9661,66.8987 62.5,66.5 Z"/></g>
<g><path style="opacity:1" fill="#544e47" d="M 74.5,82.5 C 72.5,84.5 70.5,86.5 68.5,88.5C 69.065,85.1916 71.065,83.1916 74.5,82.5 Z"/></g>
<g><path style="opacity:1" fill="#b5baba" d="M 32.5,77.5 C 34.7247,80.2624 36.7247,83.2624 38.5,86.5C 39.6651,87.5836 40.9984,88.4169 42.5,89C 48.1959,89.8299 53.8625,89.6632 59.5,88.5C 59.8333,87.5 60.5,86.8333 61.5,86.5C 62.1411,87.9935 63.1411,88.9935 64.5,89.5C 64.3893,90.1174 64.056,90.6174 63.5,91C 56.1667,91.3333 48.8333,91.6667 41.5,92C 40.5842,92.2784 39.9175,92.7784 39.5,93.5C 38.5,93.5 37.5,93.5 36.5,93.5C 35.8167,88.0899 34.4834,82.7566 32.5,77.5 Z"/></g>
<g><path style="opacity:1" fill="#e8e8e8" d="M 80.5,85.5 C 88.8811,84.8778 90.2144,87.3778 84.5,93C 83.1011,93.5946 81.7678,93.4279 80.5,92.5C 80.162,90.3448 80.162,88.0115 80.5,85.5 Z"/></g>
<g><path style="opacity:1" fill="#eeeded" d="M 24.5,86.5 C 27.8499,86.335 31.1832,86.5017 34.5,87C 37.3179,93.6058 35.3179,96.2725 28.5,95C 26.316,92.9835 24.316,90.8169 22.5,88.5C 23.2427,87.8182 23.9094,87.1515 24.5,86.5 Z"/></g>
<g><path style="opacity:1" fill="#e4bc94" d="M 74.5,82.5 C 75.525,82.8966 75.6917,83.5632 75,84.5C 73,86.5 71,88.5 69,90.5C 68.5357,89.9056 68.369,89.2389 68.5,88.5C 70.5,86.5 72.5,84.5 74.5,82.5 Z"/></g>
<g><path style="opacity:1" fill="#e3bb93" d="M 75.5,89.5 C 74.2618,90.4124 72.9285,90.5791 71.5,90C 73.3734,87.7911 75.54,85.9578 78,84.5C 77.9421,86.4354 77.1088,88.1021 75.5,89.5 Z"/></g>
<g><path style="opacity:1" fill="#cfae8d" d="M 75.5,89.5 C 77.0174,89.4894 78.1841,88.8228 79,87.5C 79.3087,89.3914 78.4753,90.7248 76.5,91.5C 75.7025,91.0431 75.3691,90.3764 75.5,89.5 Z"/></g>
<g><path style="opacity:1" fill="#b59170" d="M 77.5,97.5 C 74.8333,97.1667 72.1667,96.8333 69.5,96.5C 69.9059,94.8908 69.9059,93.5575 69.5,92.5C 68.3774,93.5437 67.0441,94.2104 65.5,94.5C 62.1879,93.6208 58.8546,93.4541 55.5,94C 57.5,94.3333 59.5,94.6667 61.5,95C 58.905,95.2256 56.405,95.7256 54,96.5C 51.5301,94.5135 48.6967,94.0135 45.5,95C 50.1642,95.335 54.3308,97.5016 58,101.5C 58.414,101.043 58.914,100.709 59.5,100.5C 60.6422,101.826 61.9755,102.826 63.5,103.5C 61.7116,104.622 59.7116,104.789 57.5,104C 51.834,99.6678 45.5007,96.6678 38.5,95C 39.056,94.6174 39.3893,94.1174 39.5,93.5C 49.6509,92.8197 59.8175,92.1531 70,91.5C 74.1724,91.946 78.0057,93.2793 81.5,95.5C 80.4231,96.7051 79.0898,97.3718 77.5,97.5 Z"/></g>
<g><path style="opacity:1" fill="#cfaa85" d="M 77.5,97.5 C 73.6036,101.11 68.9369,103.11 63.5,103.5C 61.9755,102.826 60.6422,101.826 59.5,100.5C 58.914,100.709 58.414,101.043 58,101.5C 54.3308,97.5016 50.1642,95.335 45.5,95C 48.6967,94.0135 51.5301,94.5135 54,96.5C 56.405,95.7256 58.905,95.2256 61.5,95C 59.5,94.6667 57.5,94.3333 55.5,94C 58.8546,93.4541 62.1879,93.6208 65.5,94.5C 67.0441,94.2104 68.3774,93.5437 69.5,92.5C 69.9059,93.5575 69.9059,94.8908 69.5,96.5C 72.1667,96.8333 74.8333,97.1667 77.5,97.5 Z"/></g>
<g><path style="opacity:1" fill="#b49575" d="M 31.5,97.5 C 39.6373,96.2611 46.9706,98.4278 53.5,104C 51.1667,104.667 48.8333,104.667 46.5,104C 41.2303,102.305 36.2303,100.138 31.5,97.5 Z"/></g>
</svg>
