<?xml version="1.0" encoding="UTF-8"?>
<!DOCTYPE svg PUBLIC "-//W3C//DTD SVG 1.1//EN" "http://www.w3.org/Graphics/SVG/1.1/DTD/svg11.dtd">
<!-- Creator: CorelDRAW -->
<svg xmlns="http://www.w3.org/2000/svg" xml:space="preserve" width="210mm" height="297mm" version="1.1" style="shape-rendering:geometricPrecision; text-rendering:geometricPrecision; image-rendering:optimizeQuality; fill-rule:evenodd; clip-rule:evenodd"
viewBox="0 0 21000 29700"
 xmlns:xlink="http://www.w3.org/1999/xlink"
 xmlns:xodm="http://www.corel.com/coreldraw/odm/2003">
 <defs>
  <style type="text/css">
   <![CDATA[
    .str0 {stroke:#23252A;stroke-width:282.22;stroke-miterlimit:22.9256}
    .fil3 {fill:none}
    .fil28 {fill:#231C1C}
    .fil4 {fill:#23252A}
    .fil1 {fill:#282728}
    .fil7 {fill:#312C2B}
    .fil27 {fill:#37373A}
    .fil26 {fill:#433B45}
    .fil10 {fill:#A9825C}
    .fil21 {fill:#AA9074}
    .fil23 {fill:#ABACB0}
    .fil11 {fill:#ACB3B5}
    .fil20 {fill:#B9936C}
    .fil14 {fill:#BA9876}
    .fil18 {fill:#C59C75}
    .fil13 {fill:#C7A37B}
    .fil22 {fill:#C9A885}
    .fil15 {fill:#CBA37B}
    .fil17 {fill:#CBD4D6}
    .fil8 {fill:#DBB995}
    .fil24 {fill:#E3BD97}
    .fil16 {fill:#E8C49B}
    .fil19 {fill:#EAC8A3}
    .fil12 {fill:#F4C99C}
    .fil5 {fill:#F9F7F7}
    .fil2 {fill:#FBFBFB}
    .fil9 {fill:#FBFBFC}
    .fil6 {fill:#FDFDFE}
    .fil0 {fill:#FF791F}
    .fil25 {fill:white}
   ]]>
  </style>
 </defs>
 <g id="Layer_x0020_1">
  <metadata id="CorelCorpID_0Corel-Layer"/>
  <circle class="fil0 str0" cx="8851.76" cy="6693.54" r="4500"/>
  <path class="fil1" d="M7503.23 3452.83c-19.86,-144.96 -54,-67.56 28.74,-157.32 49.8,157.38 118.68,330 -79.2,436.98 297,552.06 -591.3,248.82 -76.5,1202.04 239.04,442.56 84.84,287.88 71.82,728.58 -13.26,451.38 15.72,515.7 -8.76,537.9 -20.22,18.36 -81.06,27.96 -284.52,117.18 28.02,36.18 140.52,-25.44 233.1,96.36l101.04 -70.98 154.74 195.54c359.34,172.14 531.36,290.28 960,314.04 385.14,21.3 762.18,-112.26 1063.44,139.56l603.66 225.72c-86.4,365.04 -189.84,850.5 -246.18,1090.8l85.92 186.3c21.24,-137.4 294.78,-1177.8 295.56,-1359l-841.44 -344.94c318.48,-205.08 292.98,-105.18 523.74,-447.6l920.52 372.84c123.42,14.52 -82.8,-183.78 65.46,-124.02 -323.88,-135.54 -622.44,-257.64 -906.3,-429.72 -35.88,-208.74 4.14,-386.52 -19.62,-607.56 -34.08,-316.56 -131.16,-279.78 27.06,-541.74 423.3,-700.92 49.2,-818.76 -20.4,-980.58 891.72,-292.8 727.38,-335.94 370.2,-1068.78 -150.18,0 -131.88,-42 -95.22,93.24 169.5,258 256.8,256.56 236.22,594.36 -193.08,181.92 -207.9,226.98 -507.24,184.5l-10.02 -298.38c200.1,-142.38 35.22,43.68 256.44,-86.52 -374.34,-234.3 -194.22,-297.9 -757.92,-468.18 -408.9,-123.54 -423.84,-175.68 -736.56,-440.16l-145.26 260.34c-783,21.6 -789.36,-489.54 -1036.26,-617.1 41.94,299.34 282.12,482.64 397.02,719.04 -274.56,119.64 -675.42,-173.04 -899.16,-313.38 22.68,234.96 244.86,281.34 354.54,510.6 -301.38,54.72 -297.6,-54.3 -546.48,-68.04 154.56,111.54 357.18,259.32 467.82,418.08z"/>
  <path class="fil2" d="M7387.91 6414.55l-1420.62 583.32c-6.6,189.42 27.6,153.66 71.58,338.4l-224.16 -143.16 -166.68 202.68c-5.88,414.84 -43.5,421.62 -172.98,836.82 -89.76,287.7 -134.46,550.2 -225.18,807.66l1182.48 -114.06c40.2,-402.24 -200.82,-880.2 -264.12,-1286.1 148.8,144.66 223.74,392.28 303.36,591 437.1,293.82 289.86,1036.68 1176.24,1146.18 594.24,73.44 1584.12,166.44 2164.32,152.34 0.18,-351.24 409.98,-2101.32 458.64,-2311.2l-603.66 -225.72c-307.2,-35.76 -652.86,188.46 -1218.72,95.04 -323.88,-53.52 -726.06,-226.26 -804.72,-548.64l-154.74 -195.54 -101.04 70.98z"/>
  <path class="fil3" d="M7448.09 5663.11c13.02,-440.7 167.22,-286.02 -71.82,-728.58 -514.8,-953.22 373.5,-649.98 76.5,-1202.04 -561.78,-3 -793.44,-453.3 -826.8,-954.66"/>
  <path class="fil3" d="M4934.93 8423.41c196.74,-289.26 221.34,-704.34 787.5,-1356.84 194.28,-223.86 1216.86,-709.2 1492.38,-701.7"/>
  <path class="fil4" d="M6625.97 2777.83c33.96,-83.04 109.92,-306.78 160.5,-362.4 152.04,-167.1 13.86,-295.62 146.82,-435.3 100.08,-105.18 320.34,-73.32 459.78,-122.34 120.42,-42.36 216.84,-134.4 319.92,-209.58 661.44,-482.28 1121.46,73.86 1720.32,223.38 199.2,49.74 358.26,6.54 524.28,57.84 481.02,232.26 371.64,630.78 567.72,1035 -150.18,0 -131.88,-42 -95.22,93.24 -261.72,-437.64 -221.16,-976.62 -819.66,-1049.82 -1020.42,-124.74 -988.92,-505.8 -1561.56,-342.48 -213.12,60.78 -393.66,234 -639.36,312.54 -570.3,182.4 -265.02,123.42 -474.42,534.3 -124.2,243.78 -282.3,366.6 -100.38,686.7 116.34,204.72 366.3,364.68 605.82,403.26l62.7 -149.34c-19.86,-144.96 -54,-67.56 28.74,-157.32 49.8,157.38 118.68,330 -79.2,436.98 -561.78,-3 -891.9,-598.38 -826.8,-954.66z"/>
  <path class="fil4" d="M4934.93 8423.41c-49.08,171.36 -62.88,393.06 -26.28,574.5 1152.78,1915.8 3806.82,2863.56 6067.08,1692.48l103.14 -118.32c7.62,-8.28 20.46,-17.4 27.9,-25.86l101.82 -171.36 -64.44 -11.16c-134.94,171.6 -757.44,419.94 -987.66,448.56 -208.2,120 -515.34,154.8 -765.24,168.6 -379.02,20.94 -363.78,-66.78 -660.3,-258.78 -389.52,-252.24 -994.86,-422.16 -1274.76,-604.2 -156.66,-27.18 -321.72,-38.52 -425.76,-128.34l377.16 -157.62 115.2 -57.6 1036.74 -3.72 87.12 7.14c0.78,0.18 167.1,-7.02 126.84,-98.64 -7.2,-16.38 -128.1,-15 -167.94,-15.78 -303,-17.16 -636.24,-33.42 -935.52,-12.3 -245.04,17.28 -560.4,198.84 -762.66,146.7 -141.12,-365.58 69.9,-420.24 -215.04,-791.46 -142.38,-185.52 -186.42,-526.02 -220.74,-775.14 -79.62,-198.72 -154.56,-446.34 -303.36,-591 63.3,405.9 304.32,883.86 264.12,1286.1l-1182.48 114.06c-362.94,-259.2 -201.36,-495.6 -39.36,-896.7 118.8,-294 221.22,-522.06 437.52,-747.78l166.68 -202.68 224.16 143.16c-43.98,-184.74 -78.18,-148.98 -71.58,-338.4l1420.62 -583.32c-92.58,-121.8 -60.18,-139.62 -13.8,-182.64 -271.44,95.94 -1457.4,610.8 -1651.68,834.66 -566.16,652.5 -656.28,1032.3 -787.5,1356.84z"/>
  <path class="fil4" d="M12732.11 8638.33l8.22 483.36c-179.82,269.52 -371.28,466.56 -695.28,767.34 -17.34,-38.4 -70.74,-19.5 -53.16,-104.46 65.28,-78.42 362.64,-356.88 425.88,-630.78l-523.5 -152.16c96.42,-50.16 83.04,-56.1 123.78,-109.86 164.34,46.68 377.58,104.58 544.68,142.62 126.84,-471.96 -459.78,-1403.94 -692.34,-1819.92 -143.46,2.46 -108.3,-13.62 -228.48,111.84l51.12 -325.62c-282.06,-109.38 -641.76,-204.18 -828.06,-397.38 126.3,8.46 -8.52,-71.82 9.48,-92.88 100.62,46.26 358.8,145.26 449.7,172.86 872.04,264.66 1212.18,1540.92 1407.96,1955.04z"/>
  <path class="fil5" d="M10110.53 8495.53l-166.14 1032.3c236.16,-99.18 235.2,-299.1 382.56,-502.44 133.02,-183.54 353.7,-221.52 400.68,-388.14 87.96,-224.4 294.72,-492.84 472.62,-644.46 135.48,-151.02 96.72,-234.48 290.88,-408.18l-316.92 1095.42c426.06,75.42 1117.8,288.48 1388.52,354.36 126.84,-471.96 -459.78,-1403.94 -692.34,-1819.92 -143.46,2.46 -108.3,-13.62 -228.48,111.84l51.12 -325.62c-282.06,-109.38 -600.3,-236.4 -859.26,-354.78l-745.38 -301.92c-230.76,342.42 -205.26,242.52 -523.74,447.6l841.44 344.94c-40.14,181.2 -265.08,1217.76 -295.56,1359z"/>
  <path class="fil6" d="M7503.23 3452.83c-110.64,-158.76 -313.26,-306.54 -467.82,-418.08 248.88,13.74 245.1,122.76 546.48,68.04 -109.68,-229.26 -331.86,-275.64 -354.54,-510.6 223.74,140.34 624.6,433.02 899.16,313.38 -114.9,-236.4 -355.08,-419.7 -397.02,-719.04 246.9,127.56 253.26,638.7 1036.26,617.1l145.26 -260.34c312.72,264.48 327.66,316.62 736.56,440.16 563.7,170.28 383.58,233.88 757.92,468.18 -221.22,130.2 -56.34,-55.86 -256.44,86.52l10.02 298.38c299.34,42.48 314.16,-2.58 507.24,-184.5 20.58,-337.8 -66.72,-336.36 -236.22,-594.36 -261.72,-437.64 -221.16,-976.62 -819.66,-1049.82 -1020.42,-124.74 -988.92,-505.8 -1561.56,-342.48 -213.12,60.78 -393.66,234 -639.36,312.54 -570.3,182.4 -265.02,123.42 -474.42,534.3 -124.2,243.78 -282.3,366.6 -100.38,686.7 116.34,204.72 366.3,364.68 605.82,403.26l62.7 -149.34z"/>
  <path class="fil7" d="M11200.25 7992.79c-103.14,324.84 -171.78,446.7 -472.62,644.46 -121.14,95.16 -267.66,204.6 -400.68,388.14 -147.36,203.34 -146.4,403.26 -382.56,502.44l166.14 -1032.3 -53.82 -309.96c-93.36,348.48 -230.34,1178.76 -309.66,1340.82 -142.92,230.82 -863.46,138.72 -1141.5,136.92 -39.48,39.3 -66.36,81.84 -90.3,101.82 262.68,37.8 839.52,11.64 1175.58,10.62l377.88 -108.3c592.5,-36.54 1078.68,41.4 1559.16,339.06l-419.28 368.34 -101.82 171.36c-7.44,8.46 -20.28,17.58 -27.9,25.86l-103.14 118.32c267.12,-91.68 328.44,-186.9 472.62,-279.18l136.62 -75.06c79.02,-50.22 411.48,-377.46 460.08,-447.12 19.32,-76.92 -7.14,-67.68 -53.16,-104.46 -254.28,42.48 -351.78,11.22 -578.58,-96.78 40.38,-157.98 110.82,-203.7 138.9,-339.06 45.24,-217.8 -30.66,-164.04 -3.96,-394.92l445.32 76.68c102.84,-121.08 -111.84,-177 238.5,-78.42 -322.62,-107.52 -755.82,-211.32 -1057.86,-272.04l316.92 -1095.42c-146.58,149.52 -237.3,275.34 -290.88,408.18z"/>
  <path class="fil8" d="M10068.71 9667.45c128.88,148.2 189.66,92.46 109.5,274.5 -285.18,156.06 -324.78,33.24 -627.96,-5.82l298.44 -103.08 -157.86 -57.3c-328.92,1.02 -780.72,22.38 -1091.04,-11.4l-1077 9.96c201.06,137.58 226.98,43.14 501.12,61.5 464.76,31.08 693.12,124.98 1218.84,110.46 232.68,-6.42 112.56,-76.62 259.8,56.16 -191.88,134.58 -601.8,44.52 -773.64,-3.18 -459.54,-127.44 -482.4,-49.44 -917.4,-37.02 317.82,239.52 443.28,16.56 793.08,299.4 368.94,298.38 541.8,300.24 872.4,362.34 191.22,-227.46 147.12,-10.56 240.66,-406.86 3.66,-15.42 5.88,-29.82 9.6,-44.76l41.1 -132.48 279.06 208.5c301.02,-53.58 -54.18,26.46 147.48,-106.5 52.26,81.42 195,278.1 263.94,337.26 148.74,-55.92 84.42,69.66 156.9,-159.48 29.94,41.7 -23.16,121.92 141.96,40.56l92.7 -95.7 -479.64 -121.26c62.94,-301.26 -86.16,-105.66 106.8,-392.58 378.18,122.04 -241.08,-267.06 138.72,84.42 10.08,9.3 22.38,21.6 32.28,31.98 58.38,61.68 -13.56,27.36 81.3,122.82 162.12,163.2 99.18,-25.98 309.72,123.18 -215.1,-223.56 137.4,-187.74 188.82,-195.42 43.08,430.86 23.88,177.72 -238.74,411.54l154.5 34.5 64.44 11.16 419.28 -368.34c-480.48,-297.66 -966.66,-375.6 -1559.16,-339.06z"/>
  <path class="fil9" d="M7626.11 3253.03l-32.64 500.52c431.22,-54.18 674.82,-198.96 1223.4,-202.02 452.22,-2.58 938.64,186.72 1185.9,185.04 10.62,-370.44 230.16,-591.24 -921.6,-660.42 -475.26,-28.56 -1011.84,-2.04 -1455.06,176.88z"/>
  <path class="fil10" d="M7456.19 10117.87c279.9,182.04 885.24,351.96 1274.76,604.2 296.52,192 281.28,279.72 660.3,258.78 249.9,-13.8 557.04,-48.6 765.24,-168.6 -132.6,-96.54 -138.06,-8.58 -43.62,-125.7 312,68.1 168.36,-36.18 212.64,-133.08l-189.12 26.28 -28.92 102.6c-313.8,-63.18 -247.02,42.54 -493.2,-28.62l-137.28 -29.76c-330.6,-62.1 -503.46,-63.96 -872.4,-362.34 -349.8,-282.84 -475.26,-59.88 -793.08,-299.4 435,-12.42 457.86,-90.42 917.4,37.02 171.84,47.7 581.76,137.76 773.64,3.18 -147.24,-132.78 -27.12,-62.58 -259.8,-56.16 -525.72,14.52 -754.08,-79.38 -1218.84,-110.46 -274.14,-18.36 -300.06,76.08 -501.12,-61.5l-115.2 57.6 266.16 201.3 -217.56 84.66z"/>
  <path class="fil9" d="M5363.69 9210.19c90.48,314.52 267,377.34 468.06,601.44 239.52,267 443.28,275.22 799.98,186.54 171.66,-216.66 132.06,-650.76 3.96,-880.02 -492.9,-95.34 -805.74,11.94 -1272,92.04z"/>
  <path class="fil11" d="M8605.55 9663.31c278.04,1.8 998.58,93.9 1141.5,-136.92 -580.2,14.1 -1504.98,-75.66 -2099.22,-149.1 -886.38,-109.5 -739.14,-852.36 -1176.24,-1146.18 34.32,249.12 78.36,589.62 220.74,775.14 284.94,371.22 73.92,425.88 215.04,791.46 202.26,52.14 517.62,-129.42 762.66,-146.7 299.28,-21.12 635.46,-9.18 935.52,12.3z"/>
  <path class="fil12" d="M8598.35 4037.47l26.04 38.28c67.56,98.4 41.76,30.96 72.42,153.9l23.1 498.96 -167.82 135.66c551.88,267.96 500.04,-256.2 845.7,-43.8 34.44,173.58 -41.94,-55.02 -124.38,117.72 611.52,86.94 222.42,96.3 492.66,246.54l50.88 -184.2c-14.4,-210.72 7.86,-522.6 -100.56,-665.7 -61.26,24.72 -69.66,15.6 -181.5,79.14 -44.52,-16.14 -58.98,-52.92 -88.08,-55.44 -30.96,53.46 -252.06,138.06 -361.38,144.9l-23.88 188.28c-197.34,-285.96 -116.76,-661.68 169.62,-848.34 159.54,8.04 235.74,51.54 330.06,126.54l137.58 -94.62 -94.38 -33.96c-166.26,-115.68 -271.62,-126.3 -470.22,-83.22 -68.16,62.76 -108.78,109.98 -243.54,112.68 -135.48,22.2 -124.2,26.04 -251.28,10.2 -104.34,106.08 -63.24,-9.3 -41.04,156.48z"/>
  <path class="fil13" d="M8652.29 10954.99c-440.4,-484.5 -1612.68,-807.36 -2256.78,-765.36 59.46,178.02 807.66,525.9 1019.7,569.52 339.36,69.84 937.44,352.56 1237.08,195.84z"/>
  <path class="fil14" d="M9476.99 10623.97l137.28 29.76c29.88,-242.76 119.1,-325.98 347.46,-386.76l92.76 195.42c183.3,-76.74 24,-259.56 238.32,-0.3l-156.42 117.66 189.12 -26.28c-44.28,96.9 99.36,201.18 -212.64,133.08 -94.44,117.12 -88.98,29.16 43.62,125.7 230.22,-28.62 852.72,-276.96 987.66,-448.56l-154.5 -34.5c262.62,-233.82 281.82,19.32 238.74,-411.54 -51.42,7.68 -403.92,-28.14 -188.82,195.42 -210.54,-149.16 -147.6,40.02 -309.72,-123.18 -94.86,-95.46 -22.92,-61.14 -81.3,-122.82 -9.9,-10.38 -22.2,-22.68 -32.28,-31.98 -379.8,-351.48 239.46,37.62 -138.72,-84.42 -192.96,286.92 -43.86,91.32 -106.8,392.58l479.64 121.26 -92.7 95.7c-165.12,81.36 -112.02,1.14 -141.96,-40.56 -72.48,229.14 -8.16,103.56 -156.9,159.48 -68.94,-59.16 -211.68,-255.84 -263.94,-337.26 -201.66,132.96 153.54,52.92 -147.48,106.5l-279.06 -208.5 -41.1 132.48c-3.72,14.94 -5.94,29.34 -9.6,44.76 -93.54,396.3 -49.44,179.4 -240.66,406.86z"/>
  <path class="fil9" d="M11991.89 9784.57c79.62,-87.06 362.64,-356.88 425.88,-630.78l-424.2 -123.3 -445.32 -76.68c-26.7,230.88 49.2,177.12 3.96,394.92 -28.08,135.36 -98.52,181.08 -138.9,339.06 226.8,108 324.3,139.26 578.58,96.78z"/>
  <path class="fil15" d="M8024.15 4922.47l-198.78 69.72c-49.86,-207.36 -39.48,-503.34 42.6,-648.6 40.62,16.68 49.8,24.3 179.22,58.26 43.62,-296.04 270.9,-193.32 450.84,-266.28 -162.36,-165.66 -291.06,-89.7 -456.66,-17.22 32.46,-346.62 365.1,-326.76 556.98,-80.88 -22.2,-165.78 -63.3,-50.4 41.04,-156.48 78.24,26.7 128.46,39.12 263.94,16.92 176.34,-76.08 145.14,-57.42 230.88,-139.8 -611.22,31.14 -854.22,-169.2 -1371.6,213.84 -55.2,272.88 -80.7,1006.98 69.66,1237.62 143.88,-33.66 127.74,-118.62 191.88,-287.1z"/>
  <path class="fil11" d="M9667.13 6992.71c-301.26,-251.82 -678.3,-118.26 -1063.44,-139.56 -428.64,-23.76 -600.66,-141.9 -960,-314.04 78.66,322.38 480.84,495.12 804.72,548.64 565.86,93.42 911.52,-130.8 1218.72,-95.04z"/>
  <path class="fil16" d="M7867.97 4343.59c-82.08,145.26 -97.92,453.48 -48.06,660.84l204.24 -81.96 221.94 20.58c1.68,-1.56 -3.24,-26.28 -3.42,-19.8 -0.3,9.54 -74.52,-116.88 40.62,-164.04 238.8,-4.68 51.72,-40.02 282.54,111.6l155.16 -118.26 -9.36 -520.8c-30.66,-122.94 -0.6,-89.34 -87.24,-156l-20.22 368.7c-206.28,95.64 -502.86,-45.24 -736.2,-100.86z"/>
  <path class="fil17" d="M5249.87 9040.27c90.72,-257.46 135.42,-519.96 225.18,-807.66 129.48,-415.2 167.1,-421.98 172.98,-836.82 -216.3,225.72 -318.72,453.78 -437.52,747.78 -162,401.1 -323.58,637.5 39.36,896.7z"/>
  <path class="fil15" d="M9242.15 5721.91c212.64,-129.78 257.64,-266.4 193.44,-511.74 -217.02,107.58 -267.12,250.08 -637.02,251.88 -311.94,-12.66 -367.92,-185.82 -608.52,-261.18 -135.24,206.16 -17.34,591.12 289.32,511.74 187.62,-48.6 85.14,-142.74 387.72,-110.28 130.08,35.28 197.04,91.32 375.06,119.58z"/>
  <path class="fil18" d="M9561.23 3969.91c-10.44,36.78 -28.5,78.66 -41.28,103.74 -6.54,-7.56 -24.84,-16.92 -65.1,-31.86 -70.14,-12.12 -175.2,-90 -342.96,86.64l85.8 24.3c14.58,2.64 30.42,4.74 46.92,7.32 17.4,2.76 31.74,1.32 49.86,4.2 254.4,40.62 250.5,28.44 246.36,281.4 111.84,-63.54 86.58,-16.86 175.56,-110.82 108.42,143.1 86.16,454.98 100.56,665.7 119.82,-191.1 71.4,-412.56 58.74,-661.98 -16.5,-324.84 45.9,-395.58 -271.26,-497.22l36.18 46.02 -79.38 82.56z"/>
  <path class="fil12" d="M10612.97 9510.07c196.14,-6.9 303.18,-109.44 451.98,-225.9 220.32,-172.56 275.34,-150.06 311.1,-421.02 -315.72,77.64 -695.46,318.96 -763.08,646.92z"/>
  <path class="fil19" d="M10229.93 9499.21c253.8,-87.96 264.66,-209.64 459.72,-375.66 195.9,-166.74 343.14,-152.28 329.7,-426.72 -299.88,62.82 -700.8,493.32 -789.42,802.38z"/>
  <path class="fil8" d="M9614.27 10653.73c246.18,71.16 179.4,-34.56 493.2,28.62l28.92 -102.6 156.42 -117.66c-214.32,-259.26 -55.02,-76.44 -238.32,0.3l-92.76 -195.42c-228.36,60.78 -317.58,144 -347.46,386.76z"/>
  <path class="fil20" d="M9690.83 9775.75l157.86 57.3 -298.44 103.08c303.18,39.06 342.78,161.88 627.96,5.82 80.16,-182.04 19.38,-126.3 -109.5,-274.5l-377.88 108.3z"/>
  <path class="fil21" d="M10046.33 4926.01c119.82,-82.92 423.42,-717.36 -53.64,-719.7l53.64 719.7z"/>
  <path class="fil22" d="M7575.05 4951.45c10.62,-132.48 4.32,-256.56 -9.48,-389.22 -29.22,-280.08 12.84,-146.16 26.7,-372.3 -401.52,71.28 -202.14,605.94 -17.22,761.52z"/>
  <path class="fil23" d="M10727.63 8637.25c353.76,-185.7 375.84,-300.18 472.62,-644.46 -177.9,151.62 -384.66,420.06 -472.62,644.46z"/>
  <path class="fil24" d="M7456.19 10117.87l217.56 -84.66 -266.16 -201.3 -377.16 157.62c104.04,89.82 269.1,101.16 425.76,128.34z"/>
  <path class="fil19" d="M10942.61 9562.75c295.98,84.36 443.64,-51.72 457.56,-346.74 -135.18,42.24 -382.08,204 -457.56,346.74z"/>
  <path class="fil25" d="M9206.99 5217.13l-760.62 -29.1c203.58,280.2 445.8,220.44 617.1,134.88 67.08,-33.48 110.22,-62.1 143.52,-105.78z"/>
  <path class="fil26" d="M9523.43 8458.69c191.64,159.36 247.26,58.32 238.62,-142.32 -134.1,0.6 -171.36,0.48 -238.62,142.32z"/>
  <path class="fil27" d="M9380.81 9342.97c132.36,116.46 36.78,80.76 189.72,25.5l10.44 -219.84c-127.08,51.78 -168.18,85.02 -200.16,194.34z"/>
  <path class="fil28" d="M9698.09 7590.37l156.6 69.72c99.3,-69.96 123.84,-151.44 51.84,-236.88l-208.44 167.16z"/>
 </g>
</svg>
