<?xml version="1.0" encoding="UTF-8"?>
<!DOCTYPE svg PUBLIC "-//W3C//DTD SVG 1.1//EN" "http://www.w3.org/Graphics/SVG/1.1/DTD/svg11.dtd">
<!-- Creator: CorelDRAW -->
<svg xmlns="http://www.w3.org/2000/svg" xml:space="preserve" width="210mm" height="297mm" version="1.1" style="shape-rendering:geometricPrecision; text-rendering:geometricPrecision; image-rendering:optimizeQuality; fill-rule:evenodd; clip-rule:evenodd"
viewBox="0 0 21000 29700"
 xmlns:xlink="http://www.w3.org/1999/xlink"
 xmlns:xodm="http://www.corel.com/coreldraw/odm/2003">
 <defs>
  <style type="text/css">
   <![CDATA[
    .str0 {stroke:#23252A;stroke-width:282.22;stroke-miterlimit:22.9256}
    .str1 {stroke:#2B2A29;stroke-width:7.62;stroke-miterlimit:22.9256}
    .fil1 {fill:none}
    .fil4 {fill:#2B2A29}
    .fil2 {fill:#212020}
    .fil3 {fill:black}
    .fil31 {fill:#231C1C}
    .fil7 {fill:#23252A}
    .fil5 {fill:#282728}
    .fil10 {fill:#312C2B}
    .fil30 {fill:#37373A}
    .fil29 {fill:#433B45}
    .fil13 {fill:#A9825C}
    .fil24 {fill:#AA9074}
    .fil26 {fill:#ABACB0}
    .fil14 {fill:#ACB3B5}
    .fil23 {fill:#B9936C}
    .fil17 {fill:#BA9876}
    .fil21 {fill:#C59C75}
    .fil16 {fill:#C7A37B}
    .fil25 {fill:#C9A885}
    .fil18 {fill:#CBA37B}
    .fil20 {fill:#CBD4D6}
    .fil11 {fill:#DBB995}
    .fil27 {fill:#E3BD97}
    .fil19 {fill:#E8C49B}
    .fil22 {fill:#EAC8A3}
    .fil15 {fill:#F4C99C}
    .fil8 {fill:#F9F7F7}
    .fil6 {fill:#FBFBFB}
    .fil12 {fill:#FBFBFC}
    .fil9 {fill:#FDFDFE}
    .fil0 {fill:#FF791F}
    .fil28 {fill:white}
   ]]>
  </style>
   <clipPath id="id0">
    <rect x="-13667.5" y="-17638.06" width="36831.84" height="12700.56"/>
   </clipPath>
 </defs>
 <g id="Layer_x0020_1">
  <metadata id="CorelCorpID_0Corel-Layer"/>
  <circle class="fil0 str0" cx="8636.43" cy="5826.25" r="4500"/>
  <g style="clip-path:url(#id0)">
   <image x="-13667.5" y="-17638.06" width="36831.84" height="12700.56" xlink:href="logo_Images\logo_ImgID1.png"/>
  </g>
  <path class="fil1 str1" d="M-6803.74 -13358.16c46.11,-78.02 92.21,-156.05 138.32,-234.07 229.39,50.33 427.98,-39.14 565.08,-189.8 79.87,-87.76 62.09,-249.09 15.92,-403.06 -37.09,-123.72 -198.18,-238.07 -273.5,-338.55 -91.21,-121.68 -141.71,-325.92 -214.72,-569.86 -48.21,-161.09 -128.58,-336.95 -294.13,-427.95 -225.21,-88.05 -431.47,-73.4 -660.45,-61.87 -208.4,-144.87 -564.68,-316.7 -715.94,-356.9 -173.03,-45.99 -546.3,-43.33 -671.62,-7.87 -125.32,35.46 -259.02,198.85 -438.7,336.96 -128.73,-10.73 -252.79,-16.67 -355.4,13.74 -121.98,36.16 -166.64,109.71 -184.29,211.18 -22.36,128.5 -3.41,254.77 24.75,382.15 -76.43,57.66 -158.8,167.22 -191.56,229.56 -77.4,147.28 -32.07,331.35 37.22,483.97 80.35,176.96 228.08,334.9 368.56,364.92 121.48,25.97 287.59,76.66 410.95,91.41 32.71,69.25 35.77,171.27 69.74,241.36 41.57,-53.63 115.87,-106.62 171.55,-145.34 102.39,-71.22 232.63,-113.68 355.99,-131.99 254.63,-37.79 468.03,-61.24 725.34,-69.1 453.04,-13.84 716.65,59.36 1003.68,202.3 56.59,28.18 96.65,112.25 100.57,175.37l12.64 203.44z"/>
  <path class="fil2 str1" d="M-6849.81 -13053.2l82.99 672.15 111.58 387.9c-5.31,185.98 -19.22,653.99 -56.74,807.76 -134.25,181.43 -344.04,349.76 -581.55,457.43 -255.29,35.17 -883.21,36.52 -1233.43,8.56 -383.6,-119.26 -551.17,-321.64 -727.21,-687.24 -75,-278.29 -50.3,-674.45 47.48,-1020.47l60.31 -491.46 83.17 411.21 -7.02 158.24 124.72 104.31 99.23 -85.27 52.66 -104 61.66 -115.71 269.54 6.44 92.89 -65.2 192.01 9.47 107.34 84.66 206.21 -4.93 74.33 -68.33 167.77 -54.8 118.23 101.34 196.72 0 94.25 -57.98 92.11 252.55 144.83 71.7 11.26 -223.22 61.42 -387.66 53.24 -167.45zm-1334.05 1116.43c29.99,0 334.93,10 334.93,10l121.51 95.75 303.4 44.22 164.97 -389.92 -80.37 -155.16 -243.03 -39.8 -806.37 0 -228.98 49.8 -70.96 300.13 124.98 179.96 281.67 -24.23 98.25 -70.75z"/>
  <path class="fil3 str1" d="M-6378.64 -14118.47c-220.98,-59.16 -396.59,-213.64 -513.43,-433.74 -118.8,44.74 -258.76,47.17 -381.79,-5.38 -246.2,-100.29 -412.03,-247.12 -598.99,-465.85l-89.26 339.17c-200.77,43.12 -398.75,-33.35 -553.5,-139 -228.47,-155.98 -385.19,-295.97 -538.76,-563.5 -15.44,312.25 241.46,609.51 430.97,721.69 17.07,81.43 -90.67,99.81 -142.21,101.27 -216.43,-31.4 -437.58,-82.54 -587.19,-197.39 -71.98,-55.26 -186.49,-154.11 -230.5,-282.76 -35.48,165.76 28.03,324.24 141.25,413.25l254.7 138.02c-70.95,69.3 -171.62,87.22 -272.61,63.46l-258.64 -60.85c24.11,37.72 36.16,86.81 72.34,113.16 61.31,44.65 138.97,60.89 208.45,91.33l90.8 88.4 87.24 288.57 16.52 74.42 25.99 -448c214.01,-56.67 428.02,-113.35 642.03,-170.02 527.17,-78.75 950.4,-51.53 1463.67,62.31l358.75 144.63 0.62 312.61 38.25 248.07 48.52 92.37 41.42 -489.99c41.03,15.78 88.03,60.11 141.24,55.81 54.67,-4.42 63.36,-64.2 104.12,-92.06z"/>
  <g id="_2556525060048">
   <path class="fil4" d="M-6626.54 -13718.88c717.08,217.6 632.4,-597.65 273.5,-787.05 -458.04,-241.73 -14.36,-913.88 -819.15,-995.33 -444.54,-44.99 -417.61,33.84 -733.38,-237.11 -253.36,-217.39 -987.23,-332.59 -1310.83,19.59 -374.2,407.26 -430.48,-22.69 -592.42,221.42 -239.75,361.43 171.16,369.52 -191.63,710.22 -145.96,137.07 -168.17,493.33 30.53,640.89 199.52,148.15 445.28,190.79 681.53,284.8 150.28,429.22 281.15,268.43 -120.6,437.87 -165.9,69.98 -56.08,581.94 21.56,707.81 62.95,102.06 163.35,244.47 206.88,72.47 38.39,236.3 -308.92,27.39 -342,-341.18 -16.6,-184.97 -89.66,-420.45 86.42,-501.24 320.06,-146.86 223.85,61.6 66.92,-355.11 -241.68,7.01 -776.81,-172.79 -829.31,-473.5 -98.25,-562.71 250.75,-579 230.97,-692.58 -163.62,-939.9 495.11,-616.17 564.56,-696.72 364.92,-423.23 646,-460.98 1207.91,-322.74 688.32,169.34 101.14,274.58 1035.29,358.73 887.73,79.97 624.26,836.51 849.76,979.4 692.08,438.54 505.71,1417.36 -389.91,1155.4l73.4 -186.04z"/>
  </g>
  <path class="fil1" d="M-6663.24 -13625.86c157.5,62.14 416.96,103.95 550.1,-69.83 155.84,-203.42 170.29,-463.43 18.33,-683.98 -290.73,-421.95 -257.1,66.13 -488.61,-797.18 -177.79,-662.97 -964.06,-229.06 -1235,-584.67 -155.07,-203.53 -987.29,-352.01 -1264.68,-161.7 -357.1,244.99 -182.24,362.89 -535.25,290.93 -305.38,-62.24 -356.42,366.08 -295.12,596.27 58.66,220.27 -318.45,95.89 -233.4,714.59 46.33,337.06 816.36,463.57 818.07,470.29 57.35,224.7 292.16,310.88 -6.73,370.75 -281.42,56.38 -144.42,209.35 -161.71,497.43 -13.69,228.15 316.69,603.98 316.69,339.66"/>
  <g id="_2556525061344">
   <path class="fil4" d="M-6527.66 -13588.58c-26.66,38.77 -51.08,74.95 -74.35,111.68 170.56,10.61 237.2,239.61 190.35,491.94 -12.15,65.48 -28.54,222.82 -85.27,289.8 -19.26,55.68 -48.76,126.11 -98.1,159.95 -42.37,56.23 -191.32,27.4 -238.74,-91.85 43.89,23.12 122.95,68.7 177.29,48.41 3.7,-9.09 8.51,-12.62 21.43,-19.23l-4.08 1.41c28.05,-58.1 46.19,-148.54 76.04,-168.89 -8.17,5.28 -5.07,2.76 -9.79,6.95 -0.17,-0.62 130.66,-625.36 -81.71,-548.33 -21.44,20.93 -43.48,43.07 -71.38,54.95 -302.39,128.69 39.01,-457.12 40.83,-460.07l157.48 123.28zm-125.7 1008.7l2.61 -1.19 -0.15 -0.59c-0.91,0.56 -1.73,1.15 -2.46,1.78zm-5.54 8.33c-0.52,1.5 -0.95,3.09 -1.34,4.81l1.34 -4.81zm-0.5 -733.37c-4.31,1.73 -8.71,3.66 -13.29,5.96 5.29,-1.2 9.39,-3.31 13.29,-5.96z"/>
  </g>
  <path class="fil1" d="M-6606.4 -13650.22c-28.33,36.2 -287.16,454.72 -99.53,273.31 18.75,-18.13 304.77,-45.56 240.36,310.65 -9.46,52.34 -34.12,324.37 -74.47,345.24 -4.43,31.77 -52.55,148.53 -82.6,158.93 -3.88,33.65 -145.04,31.63 -211.13,-64.97"/>
  <g id="_2556525061680">
   <path class="fil4" d="M-7373.6 -12710.31c-93.9,33.93 -59.67,30.91 -140.79,18.17 -23.51,59.22 -142.6,131.9 -238.27,106.38 189.47,-217.77 140.15,-292.51 379.06,-124.55zm-157 15.73c-8.32,-1.19 -17.6,-2.45 -28.03,-3.75 12.39,3.72 19.91,5.15 28.03,3.75z"/>
  </g>
  <path class="fil1" d="M-7373.6 -12710.31c-32.29,-0.14 -86.81,-6.78 -163.86,-38.69 -21.36,-8.85 -91.05,148.16 -215.2,163.24"/>
  <g id="_2556525059904">
   <path class="fil4" d="M-8576.6 -12833.51c307.51,18.85 134.44,-128.56 328.78,152.69 0.68,0.99 243.37,200.28 62.18,140.96 -134.18,-15.26 -153.39,-54.62 -226.33,-139.21 -64.45,28.14 -96.35,34.37 -177.49,45.14l12.86 -199.58zm141.49 128.25l-1.44 -1.58 -2.27 0.53 3.71 1.05z"/>
  </g>
  <path class="fil1" d="M-8583.03 -12733.72c60.19,3.88 160.49,-36.23 191.9,-38.49 47.23,34.18 71.87,173.76 228.63,200.14l-67.13 16.01"/>
  <g id="_2556525049488">
   <path class="fil4" d="M-7286.42 -13416.93l5.2 7.79c-95.79,-110.34 -303,-132.92 -441.94,-30.62 -51.2,154.71 -12.96,358.27 -43.34,550.71 -384.8,-1049.43 519.92,-826.77 664.64,-604.96l-184.56 77.08z"/>
  </g>
  <path class="fil1" d="M-7194.14 -13455.47c-19.34,-46.36 -140.19,-111.86 -241.55,-124.85 -176.7,-22.66 -247.41,3.32 -345.69,98.76 -63.61,139.02 14.88,486.54 14.88,592.51"/>
  <g id="_2556525045840">
   <path class="fil4" d="M-8781.52 -13211.72c226.78,-54.2 357.26,-57.02 576.2,-32.05 3.16,39.45 10.14,34.87 -14.23,65.09 -155.1,192.39 -408.56,65.63 -561.97,-33.04z"/>
  </g>
  <path class="fil1" d="M-8781.52 -13211.72c237.86,56.7 506.61,63.82 576.2,-32.05"/>
  <path class="fil4" d="M-7831.89 -13159.16c-50.24,-75.24 203.52,-156.34 340.04,-175.39 156.35,-21.81 325.21,62.29 364.88,79.38 -31.7,276.58 -509.89,226.36 -704.92,96.01zm660.84 -13.3c6.29,0.48 12.3,-0.77 17.63,-4.59 -3.41,0.36 -9.65,2.11 -17.63,4.59z"/>
  <g id="_2556525045600">
   <path class="fil4" d="M-9301.33 -13272.26c254.51,38.05 258.6,215.84 150.21,434.04 -95.41,-94.62 -53.81,-127.62 -97.25,-254.94 -2.59,9.52 3.43,5.92 3.77,14.98 -29.05,2.84 -10.55,0.97 -55.45,5.92l-1.28 -200z"/>
  </g>
  <path class="fil1" d="M-9300.69 -13172.26c162.7,-1.04 134.61,62.65 134.61,218.94 0,37.74 15.03,114.33 14.96,115.1"/>
  <g id="_2556525045936">
   <path class="fil4" d="M-6711.32 -13021.45c-7.76,-3.99 -53.52,-23.85 -58.86,-31.94 4.57,-8.3 7.3,-8.08 6.51,-17.76l-3.98 0.31c-27.83,39.31 -46.2,111.56 -100.05,88.03 -58.91,-192.71 15.46,-249.97 212.56,-230.58l-56.18 191.94z"/>
  </g>
  <path class="fil1" d="M-6683.23 -13117.42c-209.92,-61.41 -117.13,88.1 -184.47,134.61"/>
  <g id="_2556525041952">
   <path class="fil4" d="M-8819.39 -13504.14c-123.64,14.57 421.73,-327.46 591.57,-20.53 8.06,14.55 6.01,11.47 3.14,27.21l-11.9 -3.94c-177.51,-75.15 -550.67,-60.31 -582.81,-2.74z"/>
  </g>
  <path class="fil1" d="M-8819.39 -13504.14c-30.7,-32.7 224.47,-106.02 376.65,-104.64 38.83,0.35 201.96,64.82 218.06,111.32"/>
  <g id="_2556525044496">
   <path class="fil4" d="M-8225.97 -12914.75c-8.54,-47.47 55.14,-491.75 1.29,-582.71 -1.22,0.36 -2.96,0.88 -5.62,1.77 -14.35,-123.38 231.83,262.64 4.33,580.94z"/>
  </g>
  <path class="fil1" d="M-8225.97 -12914.75c10.16,-78.79 56.36,-52.96 56.36,-288.61 0,-49.43 -4.38,-278.53 -53.14,-304.22l-7.55 11.89"/>
  <path class="fil5" d="M7287.9 2585.54c-19.86,-144.96 -54,-67.56 28.74,-157.32 49.8,157.38 118.68,330 -79.2,436.98 297,552.06 -591.3,248.82 -76.5,1202.04 239.04,442.56 84.84,287.88 71.82,728.58 -13.26,451.38 15.72,515.7 -8.76,537.9 -20.22,18.36 -81.06,27.96 -284.52,117.18 28.02,36.18 140.52,-25.44 233.1,96.36l101.04 -70.98 154.74 195.54c359.34,172.14 531.36,290.28 960,314.04 385.14,21.3 762.18,-112.26 1063.44,139.56l603.66 225.72c-22.74,368.76 -189.84,850.5 -246.18,1090.8l85.92 186.3c51.3,-96.6 294.78,-1177.8 295.56,-1359l-841.44 -344.94c318.48,-205.08 292.98,-105.18 523.74,-447.6l920.52 372.84c123.42,14.52 -82.8,-183.78 65.46,-124.02 -323.88,-135.54 -622.44,-257.64 -906.3,-429.72 -35.88,-208.74 4.14,-386.52 -19.62,-607.56 -34.08,-316.56 -131.16,-279.78 27.06,-541.74 423.3,-700.92 49.2,-818.76 -20.4,-980.58 891.72,-292.8 727.38,-335.94 370.2,-1068.78 -150.18,0 -131.88,-42 -95.22,93.24 169.5,258 256.8,256.56 236.22,594.36 -193.08,181.92 -207.9,226.98 -507.24,184.5l-10.02 -298.38c200.1,-142.38 35.22,43.68 256.44,-86.52 -374.34,-234.3 -194.22,-297.9 -757.92,-468.18 -408.9,-123.54 -423.84,-175.68 -736.56,-440.16l-145.26 260.34c-783,21.6 -789.36,-489.54 -1036.26,-617.1 41.94,299.34 282.12,482.64 397.02,719.04 -274.56,119.64 -675.42,-173.04 -899.16,-313.38 22.68,234.96 244.86,281.34 354.54,510.6 -301.38,54.72 -297.6,-54.3 -546.48,-68.04 154.56,111.54 357.18,259.32 467.82,418.08z"/>
  <path class="fil6" d="M7172.58 5547.26l-1420.62 583.32c-6.6,189.42 27.6,153.66 71.58,338.4l-224.16 -143.16 -166.68 202.68c-5.88,414.84 -43.5,421.62 -172.98,836.82 -89.76,287.7 -134.46,550.2 -225.18,807.66l1182.48 -114.06c40.2,-402.24 -200.82,-880.2 -264.12,-1286.1 148.8,144.66 223.74,392.28 303.36,591 437.1,293.82 289.86,1036.68 1176.24,1146.18 594.24,73.44 1519.02,163.2 2099.22,149.1 247.02,-216.36 86.64,-934.38 309.66,-1190.88 -28.44,-413.52 191.34,-748.32 214.08,-1117.08l-603.66 -225.72c-307.2,-35.76 -652.86,188.46 -1218.72,95.04 -323.88,-53.52 -726.06,-226.26 -804.72,-548.64l-154.74 -195.54 -101.04 70.98z"/>
  <path class="fil1" d="M7232.76 4795.82c13.02,-440.7 167.22,-286.02 -71.82,-728.58 -514.8,-953.22 373.5,-649.98 76.5,-1202.04 -561.78,-3 -793.44,-453.3 -826.8,-954.66"/>
  <path class="fil1" d="M4719.6 7556.12c196.74,-289.26 221.34,-704.34 787.5,-1356.84 194.28,-223.86 1216.86,-709.2 1492.38,-701.7"/>
  <path class="fil7" d="M6410.64 1910.54c33.96,-83.04 109.92,-306.78 160.5,-362.4 152.04,-167.1 13.86,-295.62 146.82,-435.3 100.08,-105.18 320.34,-73.32 459.78,-122.34 120.42,-42.36 216.84,-134.4 319.92,-209.58 661.44,-482.28 1121.46,73.86 1720.32,223.38 199.2,49.74 358.26,6.54 524.28,57.84 481.02,232.26 371.64,630.78 567.72,1035 -150.18,0 -131.88,-42 -95.22,93.24 -261.72,-437.64 -221.16,-976.62 -819.66,-1049.82 -1020.42,-124.74 -988.92,-505.8 -1561.56,-342.48 -213.12,60.78 -393.66,234 -639.36,312.54 -570.3,182.4 -265.02,123.42 -474.42,534.3 -124.2,243.78 -282.3,366.6 -100.38,686.7 116.34,204.72 366.3,364.68 605.82,403.26l62.7 -149.34c-19.86,-144.96 -54,-67.56 28.74,-157.32 49.8,157.38 118.68,330 -79.2,436.98 -561.78,-3 -891.9,-598.38 -826.8,-954.66z"/>
  <path class="fil7" d="M4719.6 7556.12c-49.08,171.36 -62.88,393.06 -26.28,574.5 1152.78,1915.8 3806.82,2863.56 6067.08,1692.48l103.14 -118.32c7.62,-8.28 20.46,-17.4 27.9,-25.86l101.82 -171.36 -64.44 -11.16c-134.94,171.6 -757.44,419.94 -987.66,448.56 -208.2,120 -515.34,154.8 -765.24,168.6 -379.02,20.94 -363.78,-66.78 -660.3,-258.78 -389.52,-252.24 -994.86,-422.16 -1274.76,-604.2 -156.66,-27.18 -321.72,-38.52 -425.76,-128.34l377.16 -157.62 115.2 -57.6 1036.74 -3.72 87.12 7.14c0.78,0.18 167.1,-7.02 126.84,-98.64 -7.2,-16.38 -128.1,-15 -167.94,-15.78 -303,-17.16 -636.24,-33.42 -935.52,-12.3 -245.04,17.28 -560.4,198.84 -762.66,146.7 -141.12,-365.58 69.9,-420.24 -215.04,-791.46 -142.38,-185.52 -186.42,-526.02 -220.74,-775.14 -79.62,-198.72 -154.56,-446.34 -303.36,-591 63.3,405.9 304.32,883.86 264.12,1286.1l-1182.48 114.06c-362.94,-259.2 -201.36,-495.6 -39.36,-896.7 118.8,-294 221.22,-522.06 437.52,-747.78l166.68 -202.68 224.16 143.16c-43.98,-184.74 -78.18,-148.98 -71.58,-338.4l1420.62 -583.32c-92.58,-121.8 -60.18,-139.62 -13.8,-182.64 -271.44,95.94 -1457.4,610.8 -1651.68,834.66 -566.16,652.5 -656.28,1032.3 -787.5,1356.84z"/>
  <path class="fil7" d="M12516.78 7771.04l8.22 483.36c-179.82,269.52 -371.28,466.56 -695.28,767.34 -17.34,-38.4 -70.74,-19.5 -53.16,-104.46 65.28,-78.42 362.64,-356.88 425.88,-630.78l-523.5 -152.16c96.42,-50.16 83.04,-56.1 123.78,-109.86 164.34,46.68 377.58,104.58 544.68,142.62 126.84,-471.96 -459.78,-1403.94 -692.34,-1819.92 -143.46,2.46 -108.3,-13.62 -228.48,111.84l51.12 -325.62c-282.06,-109.38 -641.76,-204.18 -828.06,-397.38 126.3,8.46 -8.52,-71.82 9.48,-92.88 100.62,46.26 358.8,145.26 449.7,172.86 872.04,264.66 1212.18,1540.92 1407.96,1955.04z"/>
  <path class="fil8" d="M9895.2 7628.24l-166.14 1032.3c236.16,-99.18 235.2,-299.1 382.56,-502.44 133.02,-183.54 353.7,-221.52 400.68,-388.14 87.96,-224.4 294.72,-492.84 472.62,-644.46 135.48,-151.02 96.72,-234.48 290.88,-408.18l-316.92 1095.42c426.06,75.42 1117.8,288.48 1388.52,354.36 126.84,-471.96 -459.78,-1403.94 -692.34,-1819.92 -143.46,2.46 -108.3,-13.62 -228.48,111.84l51.12 -325.62c-282.06,-109.38 -600.3,-236.4 -859.26,-354.78l-745.38 -301.92c-230.76,342.42 -205.26,242.52 -523.74,447.6l841.44 344.94c-0.78,181.2 -244.26,1262.4 -295.56,1359z"/>
  <path class="fil9" d="M7287.9 2585.54c-110.64,-158.76 -313.26,-306.54 -467.82,-418.08 248.88,13.74 245.1,122.76 546.48,68.04 -109.68,-229.26 -331.86,-275.64 -354.54,-510.6 223.74,140.34 624.6,433.02 899.16,313.38 -114.9,-236.4 -355.08,-419.7 -397.02,-719.04 246.9,127.56 253.26,638.7 1036.26,617.1l145.26 -260.34c312.72,264.48 327.66,316.62 736.56,440.16 563.7,170.28 383.58,233.88 757.92,468.18 -221.22,130.2 -56.34,-55.86 -256.44,86.52l10.02 298.38c299.34,42.48 314.16,-2.58 507.24,-184.5 20.58,-337.8 -66.72,-336.36 -236.22,-594.36 -261.72,-437.64 -221.16,-976.62 -819.66,-1049.82 -1020.42,-124.74 -988.92,-505.8 -1561.56,-342.48 -213.12,60.78 -393.66,234 -639.36,312.54 -570.3,182.4 -265.02,123.42 -474.42,534.3 -124.2,243.78 -282.3,366.6 -100.38,686.7 116.34,204.72 366.3,364.68 605.82,403.26l62.7 -149.34z"/>
  <path class="fil10" d="M10984.92 7125.5c-103.14,324.84 -171.78,446.7 -472.62,644.46 -121.14,95.16 -267.66,204.6 -400.68,388.14 -147.36,203.34 -146.4,403.26 -382.56,502.44l166.14 -1032.3 -53.82 -309.96c-93.36,348.48 -178.74,1243.98 -309.66,1340.82 -142.92,230.82 -863.46,138.72 -1141.5,136.92 -39.48,39.3 -66.36,81.84 -90.3,101.82 262.68,37.8 839.52,11.64 1175.58,10.62l377.88 -108.3c592.5,-36.54 1078.68,41.4 1559.16,339.06l-419.28 368.34 -101.82 171.36c-7.44,8.46 -20.28,17.58 -27.9,25.86l-103.14 118.32c267.12,-91.68 328.44,-186.9 472.62,-279.18l136.62 -75.06c79.02,-50.22 411.48,-377.46 460.08,-447.12 19.32,-76.92 -7.14,-67.68 -53.16,-104.46 -254.28,42.48 -351.78,11.22 -578.58,-96.78 40.38,-157.98 110.82,-203.7 138.9,-339.06 45.24,-217.8 -30.66,-164.04 -3.96,-394.92l445.32 76.68c102.84,-121.08 -111.84,-177 238.5,-78.42 -322.62,-107.52 -755.82,-211.32 -1057.86,-272.04l316.92 -1095.42c-146.58,149.52 -237.3,275.34 -290.88,408.18z"/>
  <path class="fil11" d="M9853.38 8800.16c128.88,148.2 189.66,92.46 109.5,274.5 -285.18,156.06 -324.78,33.24 -627.96,-5.82l298.44 -103.08 -157.86 -57.3c-328.92,1.02 -780.72,22.38 -1091.04,-11.4l-1077 9.96c201.06,137.58 226.98,43.14 501.12,61.5 464.76,31.08 693.12,124.98 1218.84,110.46 232.68,-6.42 112.56,-76.62 259.8,56.16 -191.88,134.58 -601.8,44.52 -773.64,-3.18 -459.54,-127.44 -482.4,-49.44 -917.4,-37.02 317.82,239.52 443.28,16.56 793.08,299.4 368.94,298.38 541.8,300.24 872.4,362.34 191.22,-227.46 147.12,-10.56 240.66,-406.86 3.66,-15.42 5.88,-29.82 9.6,-44.76l41.1 -132.48 279.06 208.5c301.02,-53.58 -54.18,26.46 147.48,-106.5 52.26,81.42 195,278.1 263.94,337.26 148.74,-55.92 84.42,69.66 156.9,-159.48 29.94,41.7 -23.16,121.92 141.96,40.56l92.7 -95.7 -479.64 -121.26c62.94,-301.26 -86.16,-105.66 106.8,-392.58 378.18,122.04 -241.08,-267.06 138.72,84.42 10.08,9.3 22.38,21.6 32.28,31.98 58.38,61.68 -13.56,27.36 81.3,122.82 162.12,163.2 99.18,-25.98 309.72,123.18 -215.1,-223.56 137.4,-187.74 188.82,-195.42 43.08,430.86 23.88,177.72 -238.74,411.54l154.5 34.5 64.44 11.16 419.28 -368.34c-480.48,-297.66 -966.66,-375.6 -1559.16,-339.06z"/>
  <path class="fil12" d="M7410.78 2385.74l-32.64 500.52c431.22,-54.18 674.82,-198.96 1223.4,-202.02 452.22,-2.58 938.64,186.72 1185.9,185.04 10.62,-370.44 230.16,-591.24 -921.6,-660.42 -475.26,-28.56 -1011.84,-2.04 -1455.06,176.88z"/>
  <path class="fil13" d="M7240.86 9250.58c279.9,182.04 885.24,351.96 1274.76,604.2 296.52,192 281.28,279.72 660.3,258.78 249.9,-13.8 557.04,-48.6 765.24,-168.6 -132.6,-96.54 -138.06,-8.58 -43.62,-125.7 312,68.1 168.36,-36.18 212.64,-133.08l-189.12 26.28 -28.92 102.6c-313.8,-63.18 -247.02,42.54 -493.2,-28.62l-137.28 -29.76c-330.6,-62.1 -503.46,-63.96 -872.4,-362.34 -349.8,-282.84 -475.26,-59.88 -793.08,-299.4 435,-12.42 457.86,-90.42 917.4,37.02 171.84,47.7 581.76,137.76 773.64,3.18 -147.24,-132.78 -27.12,-62.58 -259.8,-56.16 -525.72,14.52 -754.08,-79.38 -1218.84,-110.46 -274.14,-18.36 -300.06,76.08 -501.12,-61.5l-115.2 57.6 266.16 201.3 -217.56 84.66z"/>
  <path class="fil12" d="M5148.36 8342.9c90.48,314.52 267,377.34 468.06,601.44 239.52,267 443.28,275.22 799.98,186.54 171.66,-216.66 132.06,-650.76 3.96,-880.02 -492.9,-95.34 -805.74,11.94 -1272,92.04z"/>
  <path class="fil14" d="M8390.22 8796.02c278.04,1.8 998.58,93.9 1141.5,-136.92 -580.2,14.1 -1504.98,-75.66 -2099.22,-149.1 -886.38,-109.5 -739.14,-852.36 -1176.24,-1146.18 34.32,249.12 78.36,589.62 220.74,775.14 284.94,371.22 73.92,425.88 215.04,791.46 202.26,52.14 517.62,-129.42 762.66,-146.7 299.28,-21.12 635.46,-9.18 935.52,12.3z"/>
  <path class="fil15" d="M8383.02 3170.18l26.04 38.28c67.56,98.4 41.76,30.96 72.42,153.9l23.1 498.96 -167.82 135.66c551.88,267.96 500.04,-256.2 845.7,-43.8 34.44,173.58 -41.94,-55.02 -124.38,117.72 611.52,86.94 222.42,96.3 492.66,246.54l50.88 -184.2c-14.4,-210.72 7.86,-522.6 -100.56,-665.7 -61.26,24.72 -69.66,15.6 -181.5,79.14 -44.52,-16.14 -58.98,-52.92 -88.08,-55.44 -30.96,53.46 -252.06,138.06 -361.38,144.9l-23.88 188.28c-197.34,-285.96 -116.76,-661.68 169.62,-848.34 159.54,8.04 235.74,51.54 330.06,126.54l137.58 -94.62 -94.38 -33.96c-166.26,-115.68 -271.62,-126.3 -470.22,-83.22 -68.16,62.76 -108.78,109.98 -243.54,112.68 -135.48,22.2 -124.2,26.04 -251.28,10.2 -104.34,106.08 -63.24,-9.3 -41.04,156.48z"/>
  <path class="fil16" d="M8436.96 10087.7c-440.4,-484.5 -1612.68,-807.36 -2256.78,-765.36 59.46,178.02 807.66,525.9 1019.7,569.52 339.36,69.84 937.44,352.56 1237.08,195.84z"/>
  <path class="fil17" d="M9261.66 9756.68l137.28 29.76c29.88,-242.76 119.1,-325.98 347.46,-386.76l92.76 195.42c183.3,-76.74 24,-259.56 238.32,-0.3l-156.42 117.66 189.12 -26.28c-44.28,96.9 99.36,201.18 -212.64,133.08 -94.44,117.12 -88.98,29.16 43.62,125.7 230.22,-28.62 852.72,-276.96 987.66,-448.56l-154.5 -34.5c262.62,-233.82 281.82,19.32 238.74,-411.54 -51.42,7.68 -403.92,-28.14 -188.82,195.42 -210.54,-149.16 -147.6,40.02 -309.72,-123.18 -94.86,-95.46 -22.92,-61.14 -81.3,-122.82 -9.9,-10.38 -22.2,-22.68 -32.28,-31.98 -379.8,-351.48 239.46,37.62 -138.72,-84.42 -192.96,286.92 -43.86,91.32 -106.8,392.58l479.64 121.26 -92.7 95.7c-165.12,81.36 -112.02,1.14 -141.96,-40.56 -72.48,229.14 -8.16,103.56 -156.9,159.48 -68.94,-59.16 -211.68,-255.84 -263.94,-337.26 -201.66,132.96 153.54,52.92 -147.48,106.5l-279.06 -208.5 -41.1 132.48c-3.72,14.94 -5.94,29.34 -9.6,44.76 -93.54,396.3 -49.44,179.4 -240.66,406.86z"/>
  <path class="fil12" d="M11776.56 8917.28c79.62,-87.06 362.64,-356.88 425.88,-630.78l-424.2 -123.3 -445.32 -76.68c-26.7,230.88 49.2,177.12 3.96,394.92 -28.08,135.36 -98.52,181.08 -138.9,339.06 226.8,108 324.3,139.26 578.58,96.78z"/>
  <path class="fil18" d="M7808.82 4055.18l-198.78 69.72c-49.86,-207.36 -39.48,-503.34 42.6,-648.6 40.62,16.68 49.8,24.3 179.22,58.26 43.62,-296.04 270.9,-193.32 450.84,-266.28 -162.36,-165.66 -291.06,-89.7 -456.66,-17.22 32.46,-346.62 365.1,-326.76 556.98,-80.88 -22.2,-165.78 -63.3,-50.4 41.04,-156.48 78.24,26.7 128.46,39.12 263.94,16.92 176.34,-76.08 145.14,-57.42 230.88,-139.8 -611.22,31.14 -854.22,-169.2 -1371.6,213.84 -55.2,272.88 -80.7,1006.98 69.66,1237.62 143.88,-33.66 127.74,-118.62 191.88,-287.1z"/>
  <path class="fil14" d="M9451.8 6125.42c-301.26,-251.82 -678.3,-118.26 -1063.44,-139.56 -428.64,-23.76 -600.66,-141.9 -960,-314.04 78.66,322.38 480.84,495.12 804.72,548.64 565.86,93.42 911.52,-130.8 1218.72,-95.04z"/>
  <path class="fil19" d="M7652.64 3476.3c-82.08,145.26 -97.92,453.48 -48.06,660.84l204.24 -81.96 221.94 20.58c1.68,-1.56 -3.24,-26.28 -3.42,-19.8 -0.3,9.54 -74.52,-116.88 40.62,-164.04 238.8,-4.68 51.72,-40.02 282.54,111.6l155.16 -118.26 -9.36 -520.8c-30.66,-122.94 -0.6,-89.34 -87.24,-156l-20.22 368.7c-206.28,95.64 -502.86,-45.24 -736.2,-100.86z"/>
  <path class="fil20" d="M5034.54 8172.98c90.72,-257.46 135.42,-519.96 225.18,-807.66 129.48,-415.2 167.1,-421.98 172.98,-836.82 -216.3,225.72 -318.72,453.78 -437.52,747.78 -162,401.1 -323.58,637.5 39.36,896.7z"/>
  <path class="fil18" d="M9026.82 4854.62c212.64,-129.78 257.64,-266.4 193.44,-511.74 -217.02,107.58 -267.12,250.08 -637.02,251.88 -311.94,-12.66 -367.92,-185.82 -608.52,-261.18 -135.24,206.16 -17.34,591.12 289.32,511.74 187.62,-48.6 85.14,-142.74 387.72,-110.28 130.08,35.28 197.04,91.32 375.06,119.58z"/>
  <path class="fil21" d="M9345.9 3102.62c-10.44,36.78 -28.5,78.66 -41.28,103.74 -6.54,-7.56 -24.84,-16.92 -65.1,-31.86 -70.14,-12.12 -175.2,-90 -342.96,86.64l85.8 24.3c14.58,2.64 30.42,4.74 46.92,7.32 17.4,2.76 31.74,1.32 49.86,4.2 254.4,40.62 250.5,28.44 246.36,281.4 111.84,-63.54 86.58,-16.86 175.56,-110.82 108.42,143.1 86.16,454.98 100.56,665.7 119.82,-191.1 71.4,-412.56 58.74,-661.98 -16.5,-324.84 45.9,-395.58 -271.26,-497.22l36.18 46.02 -79.38 82.56z"/>
  <path class="fil15" d="M10397.64 8642.78c196.14,-6.9 303.18,-109.44 451.98,-225.9 220.32,-172.56 275.34,-150.06 311.1,-421.02 -315.72,77.64 -695.46,318.96 -763.08,646.92z"/>
  <path class="fil22" d="M10014.6 8631.92c253.8,-87.96 264.66,-209.64 459.72,-375.66 195.9,-166.74 343.14,-152.28 329.7,-426.72 -299.88,62.82 -700.8,493.32 -789.42,802.38z"/>
  <path class="fil11" d="M9398.94 9786.44c246.18,71.16 179.4,-34.56 493.2,28.62l28.92 -102.6 156.42 -117.66c-214.32,-259.26 -55.02,-76.44 -238.32,0.3l-92.76 -195.42c-228.36,60.78 -317.58,144 -347.46,386.76z"/>
  <path class="fil23" d="M9475.5 8908.46l157.86 57.3 -298.44 103.08c303.18,39.06 342.78,161.88 627.96,5.82 80.16,-182.04 19.38,-126.3 -109.5,-274.5l-377.88 108.3z"/>
  <path class="fil24" d="M9831 4058.72c119.82,-82.92 423.42,-717.36 -53.64,-719.7l53.64 719.7z"/>
  <path class="fil25" d="M7359.72 4084.16c10.62,-132.48 4.32,-256.56 -9.48,-389.22 -29.22,-280.08 12.84,-146.16 26.7,-372.3 -401.52,71.28 -202.14,605.94 -17.22,761.52z"/>
  <path class="fil26" d="M10512.3 7769.96c353.76,-185.7 375.84,-300.18 472.62,-644.46 -177.9,151.62 -384.66,420.06 -472.62,644.46z"/>
  <path class="fil27" d="M7240.86 9250.58l217.56 -84.66 -266.16 -201.3 -377.16 157.62c104.04,89.82 269.1,101.16 425.76,128.34z"/>
  <path class="fil22" d="M10727.28 8695.46c295.98,84.36 443.64,-51.72 457.56,-346.74 -135.18,42.24 -382.08,204 -457.56,346.74z"/>
  <path class="fil28" d="M8991.66 4349.84l-760.62 -29.1c203.58,280.2 445.8,220.44 617.1,134.88 67.08,-33.48 110.22,-62.1 143.52,-105.78z"/>
  <path class="fil29" d="M9308.1 7591.4c191.64,159.36 247.26,58.32 238.62,-142.32 -134.1,0.6 -171.36,0.48 -238.62,142.32z"/>
  <path class="fil30" d="M9165.48 8475.68c132.36,116.46 36.78,80.76 189.72,25.5l10.44 -219.84c-127.08,51.78 -168.18,85.02 -200.16,194.34z"/>
  <path class="fil31" d="M9482.76 6723.08l156.6 69.72c99.3,-69.96 123.84,-151.44 51.84,-236.88l-208.44 167.16z"/>
 </g>
</svg>
