<svg width="85" height="53" viewBox="0 0 85 53" fill="none" xmlns="http://www.w3.org/2000/svg">
<path d="M78.3441 16.9032C81.7807 8.96765 77.0447 4.00655 72.4978 1.93744C70.6838 1.11197 68.6551 1 66.6621 1H25.8232L3 21.2903H44.3789C48.4641 21.2903 52.8968 21.8705 55.3149 25.1631C57.3296 27.9064 58.5384 31.9864 56.6208 37.4677M78.3441 16.9032L56.6208 37.4677M78.3441 16.9032C82.5241 20.2898 83.873 24.1018 83.9913 27.2139C84.1216 30.6442 81.7513 33.4714 79.2715 35.8451L62.3954 52M56.6208 37.4677C59.0956 39.9355 63.7153 46.2968 62.3954 52M56.6208 37.4677H3M62.3954 52H3M7.67463 30.6129H46.4466M7.67463 46.2419H51.6712" stroke="black" stroke-width="2"/>
</svg>
