<svg width="351" height="374" viewBox="0 0 351 374" fill="none" xmlns="http://www.w3.org/2000/svg">
<path d="M175.555 368.063C269.487 368.063 345.633 291.916 345.633 197.984C345.633 104.052 269.487 27.9054 175.555 27.9054C81.6228 27.9054 5.47595 104.052 5.47595 197.984C5.47595 291.916 81.6228 368.063 175.555 368.063Z" fill="#FF791F" stroke="#23252A" stroke-width="10.6666" stroke-miterlimit="22.9256"/>
<path fill-rule="evenodd" clip-rule="evenodd" d="M124.587 75.5007C123.836 70.0219 122.546 72.9472 125.673 69.5547C127.555 75.5029 130.158 82.0271 122.68 86.0705C133.905 106.936 100.331 95.4747 119.788 131.502C128.823 148.229 122.995 142.382 122.503 159.039C122.001 176.099 123.097 178.53 122.172 179.369C121.407 180.063 119.108 180.426 111.418 183.798C112.477 185.165 116.729 182.836 120.228 187.44L124.047 184.757L129.895 192.147C143.477 198.654 149.978 203.119 166.179 204.017C180.735 204.822 194.986 199.774 206.372 209.291L229.187 217.823C225.922 231.619 222.012 249.967 219.883 259.05L223.13 266.091C223.933 260.898 234.272 221.576 234.301 214.727L202.499 201.69C214.536 193.939 213.572 197.715 222.293 184.773L257.085 198.864C261.749 199.413 253.955 191.918 259.559 194.177C247.318 189.054 236.034 184.439 225.305 177.936C223.949 170.046 225.461 163.327 224.563 154.973C223.275 143.008 219.606 144.398 225.586 134.498C241.585 108.006 227.446 103.552 224.815 97.4363C258.518 86.3698 252.307 84.7393 238.807 57.0414C233.131 57.0414 233.823 55.454 235.208 60.5655C241.614 70.3167 244.914 70.2622 244.136 83.0295C236.839 89.9052 236.279 91.6083 224.965 90.0027L224.586 78.7253C232.149 73.3441 225.917 80.3762 234.278 75.4553C220.13 66.5999 226.938 64.1961 205.633 57.7603C190.178 53.0911 189.613 51.1204 177.794 41.1243L172.304 50.964C142.71 51.7803 142.47 32.4617 133.138 27.6405C134.723 38.9541 143.801 45.882 148.144 54.8168C137.767 59.3386 122.616 48.2767 114.16 42.9725C115.017 51.8529 123.414 53.6059 127.56 62.2708C116.169 64.339 116.312 60.2185 106.905 59.6992C112.747 63.9149 120.405 69.5003 124.587 75.5007Z" fill="#282728"/>
<path fill-rule="evenodd" clip-rule="evenodd" d="M120.228 187.44L66.5354 209.486C66.2859 216.646 67.5785 215.294 69.2408 222.276L60.7686 216.866L54.4688 224.526C54.2466 240.205 52.8247 240.461 47.931 256.154C44.5385 267.027 42.8491 276.949 39.4203 286.679L84.1124 282.369C85.6318 267.166 76.5224 249.101 74.13 233.76C79.7539 239.228 82.5863 248.586 85.5955 256.097C102.116 267.202 96.5509 295.279 130.052 299.417C152.511 302.193 189.924 305.708 211.853 305.175C211.86 291.9 227.348 225.755 229.187 217.823L206.372 209.291C194.761 207.94 181.697 216.414 160.31 212.883C148.069 210.861 132.868 204.332 129.895 192.147L124.047 184.757L120.228 187.44Z" fill="#FBFBFB"/>
<path fill-rule="evenodd" clip-rule="evenodd" d="M91.4303 49.9888C92.7138 46.8503 95.5848 38.394 97.4965 36.2918C103.243 29.9762 98.0203 25.1188 103.046 19.8395C106.828 15.8642 115.153 17.0684 120.423 15.2157C124.974 13.6146 128.619 10.136 132.515 7.29452C157.514 -10.9334 174.9 10.0861 197.534 15.7372C205.063 17.6172 211.075 15.9844 217.35 17.9233C235.53 26.7016 231.396 41.7638 238.807 57.0414C233.131 57.0414 233.822 55.454 235.208 60.5654C225.316 44.0247 226.849 23.6538 204.229 20.8872C165.662 16.1726 166.852 1.77036 145.209 7.94309C137.154 10.2403 130.331 16.7872 121.044 19.7556C99.4898 26.6495 111.028 24.4203 103.114 39.9496C98.4194 49.1634 92.444 53.8054 99.3197 65.9037C103.717 73.6411 113.164 79.6868 122.217 81.145L124.587 75.5006C123.836 70.0218 122.546 72.9472 125.673 69.5547C127.555 75.5029 130.158 82.0271 122.679 86.0705C101.447 85.9571 88.9698 63.4545 91.4303 49.9888Z" fill="#23252A"/>
<path fill-rule="evenodd" clip-rule="evenodd" d="M27.517 263.365C25.662 269.842 25.1404 278.221 26.5238 285.078C70.0934 357.487 170.404 393.307 255.831 349.046L259.729 344.574C260.017 344.261 260.502 343.917 260.783 343.597L264.632 337.12L262.196 336.699C257.096 343.184 233.569 352.57 224.867 353.652C216.998 358.187 205.39 359.503 195.945 360.024C181.62 360.816 182.196 357.5 170.989 350.244C156.267 340.71 133.388 334.288 122.809 327.408C116.888 326.38 110.649 325.952 106.717 322.557L120.972 316.6L125.326 314.423L164.51 314.282L167.803 314.552C167.832 314.559 174.118 314.287 172.596 310.824C172.324 310.205 167.755 310.257 166.249 310.227C154.797 309.579 142.202 308.964 130.891 309.763C121.63 310.416 109.71 317.278 102.066 315.307C96.7323 301.49 104.708 299.424 93.9384 285.394C88.5571 278.382 86.8926 265.513 85.5955 256.097C82.5862 248.586 79.7539 239.228 74.1299 233.76C76.5224 249.101 85.6318 267.166 84.1124 282.369L39.4203 286.679C25.7028 276.883 31.8098 267.948 37.9326 252.788C42.4227 241.677 46.2937 233.057 54.4688 224.526L60.7685 216.866L69.2407 222.276C67.5785 215.294 66.2859 216.646 66.5353 209.486L120.228 187.44C116.729 182.836 117.954 182.163 119.706 180.537C109.447 184.163 64.6237 203.622 57.2808 212.083C35.8826 236.744 32.4765 251.099 27.517 263.365Z" fill="#23252A"/>
<path fill-rule="evenodd" clip-rule="evenodd" d="M322.214 271.488L322.524 289.757C315.728 299.943 308.492 307.391 296.246 318.759C295.591 317.307 293.572 318.022 294.237 314.811C296.704 311.847 307.943 301.322 310.333 290.97L290.547 285.219C294.191 283.323 293.686 283.099 295.226 281.067C301.437 282.831 309.496 285.019 315.812 286.457C320.606 268.619 298.434 233.395 289.645 217.673C284.223 217.766 285.551 217.158 281.009 221.9L282.941 209.593C272.281 205.459 258.686 201.876 251.645 194.574C256.418 194.894 251.323 191.859 252.003 191.063C255.806 192.812 265.564 196.554 268.999 197.597C301.958 207.6 314.814 255.836 322.214 271.488Z" fill="#23252A"/>
<path fill-rule="evenodd" clip-rule="evenodd" d="M223.13 266.091L216.851 305.107C225.777 301.358 225.74 293.802 231.31 286.117C236.337 279.18 244.678 277.745 246.454 271.447C249.778 262.966 257.593 252.82 264.316 247.09C269.437 241.382 267.972 238.227 275.31 231.662L263.332 273.064C279.435 275.915 305.58 283.967 315.812 286.457C320.606 268.619 298.434 233.395 289.645 217.673C284.222 217.766 285.551 217.158 281.009 221.9L282.941 209.593C272.281 205.459 260.253 200.658 250.465 196.184L222.293 184.773C213.572 197.715 214.536 193.939 202.499 201.69L234.301 214.727C232.784 221.576 224.282 260.753 223.13 266.091Z" fill="#F9F7F7"/>
<path fill-rule="evenodd" clip-rule="evenodd" d="M124.587 75.5006C120.405 69.5003 112.747 63.9149 106.905 59.6992C116.312 60.2185 116.169 64.3389 127.56 62.2708C123.414 53.6058 115.017 51.8529 114.16 42.9725C122.616 48.2767 137.767 59.3386 148.144 54.8168C143.801 45.882 134.723 38.9541 133.138 27.6405C142.47 32.4617 142.71 51.7803 172.304 50.9639L177.794 41.1243C189.613 51.1204 190.178 53.0911 205.633 57.7603C226.938 64.1961 220.13 66.5999 234.278 75.4553C225.917 80.3762 232.149 73.344 224.586 78.7253L224.965 90.0027C236.279 91.6082 236.839 89.9052 244.136 83.0295C244.914 70.2622 241.614 70.3166 235.208 60.5655C225.316 44.0247 226.849 23.6538 204.229 20.8872C165.662 16.1726 166.852 1.77038 145.209 7.9431C137.154 10.2403 130.331 16.7872 121.044 19.7556C99.4899 26.6495 111.028 24.4203 103.114 39.9497C98.4195 49.1634 92.4441 53.8054 99.3198 65.9037C103.717 73.6411 113.164 79.6868 122.217 81.145L124.587 75.5006Z" fill="#FDFDFE"/>
<path fill-rule="evenodd" clip-rule="evenodd" d="M264.316 247.09C260.418 259.367 257.824 263.973 246.454 271.447C241.875 275.044 236.337 279.18 231.31 286.117C225.74 293.802 225.777 301.358 216.851 305.107L223.13 266.091L221.096 254.376C217.568 267.547 212.39 298.927 209.392 305.052C203.991 313.776 176.758 310.295 166.249 310.227C164.757 311.713 163.741 313.321 162.836 314.076C172.764 315.504 194.566 314.516 207.268 314.477L221.55 310.384C243.943 309.003 262.319 311.949 280.479 323.199L264.632 337.12L260.783 343.597C260.502 343.917 260.017 344.261 259.729 344.574L255.831 349.046C265.927 345.581 268.244 341.982 273.693 338.494L278.857 335.658C281.844 333.76 294.409 321.391 296.246 318.759C296.976 315.851 295.976 316.201 294.237 314.81C284.626 316.416 280.941 315.235 272.369 311.153C273.895 305.182 276.558 303.454 277.619 298.338C279.329 290.106 276.46 292.138 277.469 283.412L294.3 286.31C298.187 281.734 290.073 279.62 303.314 283.346C291.121 279.282 274.748 275.359 263.332 273.064L275.31 231.662C269.77 237.314 266.342 242.069 264.316 247.09Z" fill="#312C2B"/>
<path fill-rule="evenodd" clip-rule="evenodd" d="M221.55 310.384C226.421 315.985 228.718 313.878 225.688 320.759C214.91 326.657 213.413 322.015 201.954 320.539L213.234 316.643L207.268 314.477C194.836 314.516 177.76 315.323 166.031 314.046L125.326 314.423C132.925 319.623 133.905 316.053 144.266 316.747C161.832 317.922 170.463 321.471 190.332 320.922C199.126 320.679 194.587 318.026 200.151 323.045C192.899 328.131 177.406 324.727 170.912 322.924C153.543 318.108 152.679 321.056 136.238 321.525C148.25 330.578 152.992 322.151 166.213 332.841C180.157 344.118 186.69 344.189 199.185 346.536C206.413 337.939 204.746 346.137 208.281 331.158C208.42 330.576 208.504 330.031 208.644 329.467L210.197 324.46L220.745 332.34C232.122 330.315 218.697 333.34 226.319 328.315C228.294 331.392 233.689 338.826 236.294 341.062C241.916 338.948 239.485 343.694 242.224 335.034C243.356 336.61 241.349 339.642 247.59 336.567L251.093 332.95L232.965 328.367C235.344 316.981 229.709 324.373 237.002 313.529C251.295 318.142 227.89 303.436 242.245 316.72C242.626 317.071 243.091 317.536 243.465 317.929C245.671 320.26 242.952 318.963 246.538 322.571C252.665 328.739 250.286 321.589 258.244 327.226C250.114 318.777 263.437 320.131 265.38 319.84C267.008 336.125 266.283 326.557 256.357 335.395L262.196 336.699L264.632 337.12L280.479 323.199C262.319 311.949 243.943 309.003 221.55 310.384Z" fill="#DBB995"/>
<path fill-rule="evenodd" clip-rule="evenodd" d="M129.231 67.9491L127.997 86.8664C144.295 84.8186 153.502 79.3466 174.236 79.231C191.328 79.1335 209.712 86.2881 219.057 86.2246C219.459 72.2237 227.756 63.8785 184.225 61.2639C166.263 60.1844 145.983 61.1868 129.231 67.9491Z" fill="#FBFBFC"/>
<path fill-rule="evenodd" clip-rule="evenodd" d="M122.809 327.408C133.388 334.288 156.267 340.71 170.989 350.244C182.196 357.5 181.62 360.816 195.945 360.024C205.39 359.503 216.998 358.187 224.867 353.652C219.856 350.003 219.649 353.328 223.219 348.901C235.011 351.475 229.582 347.534 231.256 343.871L224.108 344.865L223.015 348.742C211.154 346.354 213.678 350.35 204.374 347.661L199.185 346.536C186.69 344.189 180.157 344.118 166.213 332.841C152.992 322.151 148.25 330.578 136.238 321.525C152.679 321.056 153.543 318.108 170.912 322.924C177.406 324.727 192.899 328.131 200.152 323.045C194.587 318.026 199.127 320.679 190.332 320.922C170.463 321.471 161.832 317.922 144.266 316.747C133.905 316.053 132.925 319.623 125.326 314.423L120.972 316.6L131.032 324.208L122.809 327.408Z" fill="#A9825C"/>
<path fill-rule="evenodd" clip-rule="evenodd" d="M43.7222 293.102C47.1419 304.989 53.8135 307.363 61.4126 315.833C70.4654 325.925 78.1665 326.235 91.6481 322.884C98.136 314.695 96.6393 298.288 91.7978 289.623C73.1685 286.02 61.3446 290.074 43.7222 293.102Z" fill="#FBFBFC"/>
<path fill-rule="evenodd" clip-rule="evenodd" d="M166.249 310.227C176.758 310.295 203.991 313.776 209.392 305.052C187.464 305.585 152.511 302.193 130.052 299.417C96.5508 295.279 102.116 267.202 85.5955 256.097C86.8926 265.513 88.5571 278.382 93.9384 285.394C104.708 299.424 96.7322 301.49 102.066 315.307C109.71 317.278 121.629 310.416 130.891 309.763C142.202 308.964 154.908 309.416 166.249 310.227Z" fill="#ACB3B5"/>
<path fill-rule="evenodd" clip-rule="evenodd" d="M165.977 97.5972L166.961 99.044C169.515 102.763 168.54 100.214 169.698 104.861L170.571 123.719L164.229 128.846C185.087 138.974 183.128 119.163 196.192 127.191C197.494 133.751 194.607 125.111 191.491 131.64C214.604 134.926 199.898 135.28 210.111 140.958L212.034 133.996C211.49 126.032 212.331 114.245 208.234 108.836C205.918 109.77 205.601 109.426 201.374 111.827C199.691 111.217 199.145 109.827 198.045 109.732C196.875 111.752 188.518 114.95 184.386 115.208L183.484 122.324C176.025 111.516 179.071 97.316 189.895 90.2612C195.925 90.565 198.805 92.2091 202.369 95.0438L207.569 91.4676L204.002 90.1841C197.718 85.8119 193.736 85.4105 186.23 87.0387C183.654 89.4108 182.119 91.1955 177.025 91.2975C171.905 92.1366 172.331 92.2817 167.528 91.683C163.585 95.6923 165.138 91.3315 165.977 97.5972Z" fill="#F4C99C"/>
<path fill-rule="evenodd" clip-rule="evenodd" d="M168.016 359.047C151.371 340.735 107.064 328.532 82.7201 330.12C84.9674 336.848 113.246 349.996 121.26 351.645C134.086 354.285 156.691 364.97 168.016 359.047Z" fill="#C7A37B"/>
<path fill-rule="evenodd" clip-rule="evenodd" d="M199.185 346.536L204.374 347.661C205.503 338.485 208.875 335.34 217.506 333.043L221.012 340.429C227.94 337.528 221.919 330.619 230.02 340.418L224.108 344.865L231.255 343.871C229.582 347.534 235.011 351.475 223.219 348.901C219.649 353.328 219.856 350.003 224.867 353.652C233.569 352.57 257.096 343.184 262.196 336.698L256.357 335.395C266.283 326.557 267.008 336.125 265.38 319.84C263.437 320.131 250.114 318.777 258.244 327.226C250.286 321.589 252.665 328.739 246.538 322.571C242.952 318.963 245.671 320.26 243.465 317.929C243.091 317.536 242.626 317.071 242.245 316.72C227.89 303.436 251.295 318.142 237.002 313.529C229.709 324.373 235.344 316.981 232.965 328.367L251.093 332.95L247.59 336.567C241.349 339.642 243.356 336.61 242.224 335.034C239.485 343.694 241.916 338.948 236.294 341.062C233.689 338.826 228.294 331.392 226.319 328.315C218.697 333.34 232.122 330.315 220.745 332.34L210.197 324.46L208.644 329.467C208.503 330.031 208.42 330.576 208.281 331.158C204.746 346.137 206.413 337.939 199.185 346.536Z" fill="#BA9876"/>
<path fill-rule="evenodd" clip-rule="evenodd" d="M294.237 314.811C297.246 311.52 307.943 301.322 310.333 290.97L294.3 286.31L277.469 283.412C276.46 292.138 279.329 290.106 277.619 298.338C276.558 303.454 273.895 305.182 272.369 311.153C280.941 315.235 284.626 316.416 294.237 314.811Z" fill="#FBFBFC"/>
<path fill-rule="evenodd" clip-rule="evenodd" d="M144.275 131.046L136.762 133.681C134.878 125.844 135.27 114.657 138.372 109.167C139.907 109.798 140.254 110.086 145.146 111.369C146.794 100.18 155.385 104.063 162.185 101.305C156.049 95.0438 151.185 97.9148 144.926 100.654C146.153 87.5536 158.725 88.3042 165.977 97.5973C165.138 91.3316 163.585 95.6924 167.528 91.6831C170.485 92.6922 172.383 93.1616 177.504 92.3226C184.169 89.4471 182.989 90.1524 186.23 87.0388C163.129 88.2158 153.945 80.6438 134.39 95.1209C132.304 105.435 131.34 133.18 137.023 141.897C142.461 140.625 141.851 137.414 144.275 131.046Z" fill="#CBA37B"/>
<path fill-rule="evenodd" clip-rule="evenodd" d="M206.372 209.291C194.986 199.774 180.735 204.822 166.179 204.017C149.978 203.119 143.477 198.654 129.895 192.147C132.868 204.332 148.069 210.861 160.31 212.883C181.697 216.414 194.761 207.94 206.372 209.291Z" fill="#ACB3B5"/>
<path fill-rule="evenodd" clip-rule="evenodd" d="M138.372 109.167C135.27 114.657 134.671 126.307 136.556 134.144L144.275 131.046L152.663 131.824C152.727 131.765 152.541 130.831 152.534 131.076C152.523 131.436 149.717 126.658 154.069 124.876C163.095 124.699 156.024 123.363 164.748 129.094L170.612 124.624L170.258 104.94C169.1 100.294 170.236 101.564 166.961 99.0441L166.197 112.979C158.401 116.594 147.191 111.269 138.372 109.167Z" fill="#E8C49B"/>
<path fill-rule="evenodd" clip-rule="evenodd" d="M39.4203 286.679C42.8491 276.949 44.5385 267.027 47.931 256.154C52.8248 240.461 54.2466 240.205 54.4689 224.526C46.2937 233.057 42.4227 241.677 37.9327 252.788C31.8098 267.948 25.7029 276.883 39.4203 286.679Z" fill="#CBD4D6"/>
<path fill-rule="evenodd" clip-rule="evenodd" d="M190.31 161.261C198.346 156.356 200.047 151.192 197.621 141.92C189.418 145.986 187.525 151.372 173.544 151.44C161.754 150.961 159.639 144.416 150.545 141.568C145.434 149.36 149.89 163.91 161.48 160.91C168.571 159.073 164.698 155.515 176.134 156.742C181.05 158.075 183.581 160.193 190.31 161.261Z" fill="#CBA37B"/>
<path fill-rule="evenodd" clip-rule="evenodd" d="M202.369 95.0438C201.975 96.4339 201.292 98.0168 200.809 98.9647C200.562 98.6789 199.87 98.3252 198.349 97.7605C195.698 97.3024 191.727 94.359 185.386 101.035L188.629 101.954C189.18 102.053 189.779 102.133 190.403 102.23C191.06 102.334 191.602 102.28 192.287 102.389C201.902 103.924 201.755 103.464 201.598 113.025C205.825 110.623 204.871 112.387 208.234 108.836C212.331 114.245 211.49 126.032 212.034 133.996C216.563 126.774 214.733 118.404 214.254 108.977C213.631 96.6992 215.989 94.0256 204.002 90.1841L205.369 91.9234L202.369 95.0438Z" fill="#C59C75"/>
<path fill-rule="evenodd" clip-rule="evenodd" d="M242.12 304.436C249.533 304.175 253.579 300.299 259.203 295.898C267.53 289.376 269.609 290.226 270.961 279.985C259.028 282.92 244.676 292.04 242.12 304.436Z" fill="#F4C99C"/>
<path fill-rule="evenodd" clip-rule="evenodd" d="M227.643 304.025C237.235 300.701 237.646 296.102 245.018 289.827C252.422 283.525 257.987 284.072 257.479 273.699C246.145 276.073 230.992 292.344 227.643 304.025Z" fill="#EAC8A3"/>
<path fill-rule="evenodd" clip-rule="evenodd" d="M204.374 347.661C213.678 350.35 211.154 346.354 223.015 348.742L224.108 344.865L230.02 340.418C221.919 330.619 227.94 337.528 221.012 340.429L217.506 333.043C208.875 335.34 205.503 338.485 204.374 347.661Z" fill="#DBB995"/>
<path fill-rule="evenodd" clip-rule="evenodd" d="M207.268 314.477L213.234 316.643L201.954 320.539C213.413 322.015 214.91 326.657 225.688 320.759C228.718 313.878 226.421 315.985 221.55 310.384L207.268 314.477Z" fill="#B9936C"/>
<path fill-rule="evenodd" clip-rule="evenodd" d="M220.704 131.18C225.232 128.046 236.707 104.067 218.677 103.979L220.704 131.18Z" fill="#AA9074"/>
<path fill-rule="evenodd" clip-rule="evenodd" d="M127.301 132.141C127.702 127.134 127.464 122.445 126.943 117.431C125.838 106.845 127.428 111.907 127.952 103.359C112.776 106.054 120.312 126.261 127.301 132.141Z" fill="#C9A885"/>
<path fill-rule="evenodd" clip-rule="evenodd" d="M246.454 271.447C259.824 264.429 260.659 260.102 264.317 247.09C257.593 252.82 249.778 262.966 246.454 271.447Z" fill="#ABACB0"/>
<path fill-rule="evenodd" clip-rule="evenodd" d="M122.809 327.408L131.031 324.208L120.972 316.6L106.717 322.557C110.649 325.952 116.888 326.38 122.809 327.408Z" fill="#E3BD97"/>
<path fill-rule="evenodd" clip-rule="evenodd" d="M254.579 306.427C265.766 309.615 271.346 304.472 271.873 293.322C266.763 294.918 257.432 301.032 254.579 306.427Z" fill="#EAC8A3"/>
<path fill-rule="evenodd" clip-rule="evenodd" d="M188.981 142.183L160.233 141.083C167.927 151.673 177.082 149.415 183.556 146.181C186.092 144.915 187.722 143.834 188.981 142.183Z" fill="white"/>
<path fill-rule="evenodd" clip-rule="evenodd" d="M200.941 264.698C208.184 270.722 210.286 266.903 209.959 259.319C204.891 259.342 203.483 259.338 200.941 264.698Z" fill="#433B45"/>
<path fill-rule="evenodd" clip-rule="evenodd" d="M195.55 298.12C200.553 302.522 196.94 301.172 202.721 299.084L203.115 290.775C198.312 292.732 196.759 293.988 195.55 298.12Z" fill="#37373A"/>
<path fill-rule="evenodd" clip-rule="evenodd" d="M207.542 231.88L213.461 234.515C217.214 231.871 218.141 228.791 215.42 225.562L207.542 231.88Z" fill="#231C1C"/>
</svg>
