<svg width="153" height="111" viewBox="0 0 153 111" fill="none" xmlns="http://www.w3.org/2000/svg">
<path d="M35.3162 45.9925L67.6898 76.8234C73.9128 82.7499 73.8944 92.6827 67.6495 98.5861L64.6801 101.393C58.9558 106.804 50.0212 106.866 44.2228 101.534L11.4119 71.3645C5.17109 65.626 4.92277 55.8596 10.8639 49.8114L14.2706 46.3433C20.0125 40.4979 29.3827 40.3417 35.3162 45.9925Z" fill="#FFD0B2"/>
<path d="M141.209 34.1661L67.194 102.539C61.8851 107.443 53.8338 107.864 48.0423 103.54L45.9563 101.983C38.4909 96.4097 37.8584 85.4506 44.633 79.0555L118.075 9.72679C123.858 4.26759 132.897 4.27074 138.676 9.73398L141.335 12.2474C147.646 18.2127 147.588 28.2737 141.209 34.1661Z" fill="#FB5F19"/>
</svg>
