<svg width="110" height="72" viewBox="0 0 110 72" fill="none" xmlns="http://www.w3.org/2000/svg">
<path d="M7.42077 68.8545C11.3344 66.6889 19.7632 62.7512 20.6292 62.5383C22.0968 62.1773 25.3989 62.1773 27.05 62.3578M27.05 62.3578C27.478 64.8241 29.0593 69.5217 29.2514 69.9373C29.945 71.4384 36.4083 71.598 43.009 68.7772C47.4 66.9008 49.6665 62.4133 47.7799 58.0267V58.0267M27.05 62.3578L22.4637 45.9355C23.9313 46.0558 28.1071 46.3108 30.3521 45.5746C34.2045 44.3114 34.388 41.063 30.3521 40.1607C28.0893 39.6548 23.4421 39.6795 21.363 39.9802M21.363 39.9802C19.712 42.206 18.0609 45.9355 15.4926 47.9207C14.9765 48.3196 5.70856 53.2143 1 55.5002M21.363 39.9802C20.5069 37.8147 19.4184 32.3647 21.9134 27.8891L21 21L19.8954 8.57949C19.7153 8.32357 19.4802 7.92592 19.2505 7.43081C18.2254 5.22109 19.9427 3.02974 22.2574 2.27074V2.27074C24.5949 1.50426 27.3702 2.21864 27.9909 4.59903C28.1628 5.25842 28.2394 5.94013 28.1507 6.59439C30.1686 10.2638 34.3513 18.6855 34.9384 23.0166C37.3844 24.7611 42.5699 29.9103 42.2764 35.8296M42.2764 35.8296C40.8088 36.5514 36.9563 37.8147 36.5894 41.063C36.4476 42.3185 39.4964 44.5612 45.0281 41.063C50.1647 37.8147 46.8969 34.2054 42.2764 35.8296ZM38.6074 42.5722C37.7513 42.9933 36.2225 44.6723 37.6901 46.8379C39.0053 48.7785 45.5173 46.7777 48.6971 45.3942C50.3482 44.6758 51.082 40.5216 45.5785 40.6304M39.8915 47.3793C38.4851 49.0034 36.5894 52.9101 40.9922 53.1988C45.395 53.4876 49.1252 51.2292 50.1647 49.9058C50.7151 49.1238 51.8158 45.9355 46.8969 45.9094M41.5426 53.5366C40.3196 54.6194 38.6119 58.3877 42.4598 58.568C46.3123 58.7485 49.4921 56.6431 50.5316 55.1392C51.5712 53.6354 50.8985 52.2518 48.3302 51.5299" stroke="black" stroke-width="2"/>
<path d="M102.579 68.8545C98.6656 66.6889 90.2368 62.7512 89.3708 62.5383C87.9032 62.1773 84.6011 62.1773 82.95 62.3578M82.95 62.3578C82.522 64.8241 80.9407 69.5217 80.7486 69.9373C80.055 71.4384 73.5917 71.598 66.991 68.7772C62.6 66.9008 60.3335 62.4133 62.2201 58.0267V58.0267M82.95 62.3578L87.5363 45.9355C86.0687 46.0558 81.8929 46.3108 79.6479 45.5746C75.7955 44.3114 75.612 41.063 79.6479 40.1607C81.9107 39.6548 86.5579 39.6795 88.637 39.9802M88.637 39.9802C90.288 42.206 91.9391 45.9355 94.5074 47.9207C95.0235 48.3196 104.291 53.2143 109 55.5002M88.637 39.9802C89.4931 37.8147 90.5816 32.3647 88.0866 27.8892L89.0956 24.4603V24.4603C89.7648 22.1862 90.1046 19.8279 90.1046 17.4573V8.57949C90.2847 8.32357 90.5198 7.92592 90.7495 7.43081C91.7746 5.22109 90.0573 3.02974 87.7426 2.27074V2.27074C85.4051 1.50426 82.6298 2.21864 82.0091 4.59903C81.8372 5.25842 81.7606 5.94013 81.8493 6.59439C79.8314 10.2638 75.6487 18.6855 75.0616 23.0166C72.6156 24.7611 67.4301 29.9104 67.7236 35.8296M67.7236 35.8296C69.1912 36.5514 73.0437 37.8147 73.4106 41.063C73.5524 42.3186 70.5036 44.5612 64.9719 41.063C59.8353 37.8147 63.1031 34.2054 67.7236 35.8296ZM71.3926 42.5723C72.2487 42.9933 73.7775 44.6723 72.3099 46.8379C70.9947 48.7785 64.4827 46.7777 61.3029 45.3942C59.6518 44.6758 58.918 40.5216 64.4215 40.6304M70.1085 47.3793C71.5149 49.0035 73.4106 52.9101 69.0078 53.1988C64.605 53.4876 60.8748 51.2292 59.8353 49.9058C59.2849 49.1238 58.1842 45.9355 63.1031 45.9094M68.4574 53.5366C69.6804 54.6194 71.3881 58.3877 67.5402 58.568C63.6877 58.7485 60.5079 56.6431 59.4684 55.1392C58.4288 53.6354 59.1015 52.2518 61.6698 51.5299" stroke="black" stroke-width="2"/>
</svg>
