<svg width="57" height="57" viewBox="0 0 57 57" fill="none" xmlns="http://www.w3.org/2000/svg">
<path fill-rule="evenodd" clip-rule="evenodd" d="M55 28.5C55 43.1355 43.1355 55 28.5 55C13.8645 55 2 43.1355 2 28.5C2 13.8645 13.8645 2 28.5 2C43.1355 2 55 13.8645 55 28.5ZM57 28.5C57 44.2401 44.2401 57 28.5 57C12.7599 57 0 44.2401 0 28.5C0 12.7599 12.7599 0 28.5 0C44.2401 0 57 12.7599 57 28.5ZM27.5 12.0645V28.6749V30.1476L28.8688 29.6044L39.8842 25.2333L39.1465 23.3743L29.5 27.2022V12.0645H27.5Z" fill="black"/>
</svg>
